<?xml version="1.0" encoding="UTF-8"?>
<!-- Generator: Adobe Illustrator 19.0.1, SVG Export Plug-In . SVG Version: 6.00 Build 0)  -->
<svg version="1.1" xmlns="http://www.w3.org/2000/svg" xmlns:xlink="http://www.w3.org/1999/xlink" x="0px" y="0px" viewBox="0 0 1451.1 310.7" style="enable-background:new 0 0 1451.1 310.7;" xml:space="preserve">
<style type="text/css">
	.st0{display:none;}
	.st1{display:inline;fill:none;}
	.st2{fill:#231F20;}
	.st3{clip-path:url(#SVGID_2_);}
	.st4{fill:none;}
	.st5{fill:#EE7326;}
	.st6{fill:#EE7227;}
	.st7{fill:#EE7228;}
	.st8{fill:#EE7129;}
	.st9{fill:#EE712A;}
	.st10{fill:#EE702B;}
	.st11{fill:#EE702C;}
	.st12{fill:#ED6F2D;}
	.st13{fill:#ED6F2E;}
	.st14{fill:#ED6E2F;}
	.st15{fill:#ED6E30;}
	.st16{fill:#ED6D31;}
	.st17{fill:#ED6D32;}
	.st18{fill:#ED6C32;}
	.st19{fill:#ED6C33;}
	.st20{fill:#ED6C34;}
	.st21{fill:#ED6B35;}
	.st22{fill:#ED6A36;}
	.st23{fill:#ED6A37;}
	.st24{fill:#ED6938;}
	.st25{fill:#ED6939;}
	.st26{fill:#EC683A;}
	.st27{fill:#EC683B;}
	.st28{fill:#EC673B;}
	.st29{fill:#EC673C;}
	.st30{fill:#EC673D;}
	.st31{fill:#EC663D;}
	.st32{fill:#EC663E;}
	.st33{fill:#EC663F;}
	.st34{fill:#EC653F;}
	.st35{fill:#EC6540;}
	.st36{fill:#EC6440;}
	.st37{fill:#EC6441;}
	.st38{fill:#EC6442;}
	.st39{fill:#EC6342;}
	.st40{fill:#EC6343;}
	.st41{fill:#EC6244;}
	.st42{fill:#EC6145;}
	.st43{fill:#EC6146;}
	.st44{fill:#EC6047;}
	.st45{fill:#EC5F48;}
	.st46{fill:#EB5F49;}
	.st47{fill:#EB5E49;}
	.st48{fill:#EB5E4A;}
	.st49{fill:#EB5D4A;}
	.st50{fill:#EB5D4B;}
	.st51{fill:#EB5C4B;}
	.st52{fill:#EB5C4C;}
	.st53{fill:#EB5B4C;}
	.st54{fill:#EB5B4D;}
	.st55{fill:#EB5A4E;}
	.st56{fill:#EB594E;}
	.st57{fill:#EB594F;}
	.st58{fill:#EB584F;}
	.st59{fill:#EB5850;}
	.st60{fill:#EB5750;}
	.st61{fill:#EB5751;}
	.st62{fill:#EA5652;}
	.st63{fill:#EA5552;}
	.st64{fill:#EA5553;}
	.st65{fill:#EA5453;}
	.st66{fill:#EA5454;}
	.st67{fill:#EA5354;}
	.st68{fill:#EA5355;}
	.st69{fill:#EA5255;}
	.st70{fill:#EA5156;}
	.st71{fill:#EA5056;}
	.st72{fill:#EA5057;}
	.st73{fill:#EA4F57;}
	.st74{fill:#EA4F58;}
	.st75{fill:#EA4E58;}
	.st76{fill:#EA4D59;}
	.st77{fill:#E94C59;}
	.st78{fill:#E94C5A;}
	.st79{fill:#E94B5A;}
	.st80{fill:#E94A5B;}
	.st81{fill:#E9495B;}
	.st82{fill:#E9495C;}
	.st83{fill:#E9485C;}
	.st84{fill:#E9475D;}
	.st85{fill:#E9465D;}
	.st86{fill:#E9465E;}
	.st87{fill:#E9455E;}
	.st88{fill:#E9445F;}
	.st89{fill:#E9435F;}
	.st90{fill:#E9425F;}
	.st91{fill:#E94260;}
	.st92{fill:#E94160;}
	.st93{fill:#E94061;}
	.st94{fill:#E84061;}
	.st95{fill:#E83F61;}
	.st96{fill:#E83E61;}
	.st97{fill:#E83E62;}
	.st98{fill:#E83D62;}
	.st99{fill:#E83C63;}
	.st100{fill:#E83B63;}
	.st101{fill:#E83A64;}
	.st102{fill:#E83964;}
	.st103{fill:#E83865;}
	.st104{fill:#E83765;}
	.st105{fill:#E83666;}
	.st106{fill:#E83566;}
	.st107{fill:#E83466;}
	.st108{fill:#E83467;}
	.st109{fill:#E83367;}
	.st110{fill:#E83267;}
	.st111{fill:#E83168;}
	.st112{fill:#E83068;}
	.st113{fill:#E72F68;}
	.st114{fill:#E72F69;}
	.st115{fill:#E72E69;}
	.st116{fill:#E72D69;}
	.st117{fill:#E72C69;}
	.st118{fill:#E72B6A;}
	.st119{fill:#E72A6A;}
	.st120{fill:#E7296A;}
	.st121{fill:#E7286B;}
	.st122{fill:#E7276B;}
	.st123{fill:#E7266B;}
	.st124{fill:#E7256B;}
	.st125{fill:#E7246C;}
	.st126{fill:#E7236C;}
	.st127{fill:#E7226C;}
	.st128{fill:#E7216C;}
	.st129{fill:#E7216D;}
	.st130{fill:#E7206D;}
	.st131{fill:#E71F6D;}
	.st132{fill:#E71E6D;}
	.st133{fill:#E61D6D;}
	.st134{fill:#E61C6E;}
	.st135{fill:#E61A6E;}
	.st136{fill:#E6196E;}
	.st137{fill:#E6186E;}
	.st138{fill:#E6176E;}
	.st139{fill:#E6156E;}
	.st140{fill:#E6146F;}
	.st141{fill:#E6126F;}
	.st142{fill:#E6116F;}
	.st143{fill:#E60F6F;}
	.st144{fill:#E60D6F;}
	.st145{fill:#E60B70;}
	.st146{fill:#E60970;}
	.st147{fill:#E60770;}
	.st148{fill:#E60470;}
	.st149{fill:#E60270;}
	.st150{fill:#E60070;}
	.st151{fill:#E60071;}
	.st152{fill:#E50071;}
</style>
<g id="Clear_space" class="st0">
	<rect x="-65.8" y="-54.2" class="st1" width="1583.5" height="396.1"/>
</g>
<g id="Boxes" class="st0">
	<rect x="396.9" y="76.1" class="st1" width="65.8" height="65.8"/>
	<rect x="1451.9" y="76.1" class="st1" width="65.8" height="65.8"/>
	<rect x="346.5" y="-54.2" class="st1" width="65.8" height="65.8"/>
	<rect x="13.7" y="-54.2" class="st1" width="65.8" height="65.8"/>
	<rect x="13.7" y="276" class="st1" width="65.8" height="65.8"/>
	<rect x="-65.8" y="29.7" class="st1" width="65.8" height="65.8"/>
</g>
<g id="Type">
	<g>
		<path class="st2" d="M511,10.4c18.7,0,31.7,8.2,31.7,25.8c0,13-5.9,20.9-17.3,24.6c13.5,4,20.6,12.4,20.6,23.9    c0,21.9-14.1,30.9-37.5,30.9h-45.8v-12.7l10.8-4.5V28.3l-10.8-4.5V11.2l33.1-0.7H511z M504.3,53.4c10.5,0,16.1-4.6,16.1-13.9    c0-7.8-5.3-11.2-12.2-11.2h-12.2v25.1H504.3z M507.9,97.7c10.1,0,15.4-4.8,15.4-13c0-10.9-6.1-15.7-19-15.7h-8.4v28.6H507.9z"/>
		<path class="st2" d="M631.4,73.8c0,26.8-15.1,43.2-38.5,43.2c-23.5,0-36.7-12.7-36.7-41c0-26.8,15.4-42.5,38.9-42.5    C618.4,33.6,631.4,48.2,631.4,73.8z M578.5,75.3c0,16.4,4.6,23.9,15.1,23.9c10.4,0,15.4-6.7,15.4-24.6c0-15.2-4.3-23.1-14.7-23.1    C583.8,51.4,578.5,57.4,578.5,75.3z"/>
		<path class="st2" d="M637.1,35.8l33.1-0.7v51.4c0,8.2,2.3,11.9,8.8,11.9c9.4,0,16.3-8.1,16.3-8.1V51.4l-11.5-3.7V35.8L717,35v64.9    l11.5,3v11.6l-30.4,1l-1.4-10.4c0,0-11.5,11.9-25.2,11.9c-14.4,0-22.8-10-22.8-26.7V51.4l-11.5-3.7V35.8z"/>
		<path class="st2" d="M766.5,45.3c0,0,10.4-11.8,20-11.8c7.9,0,13.4,2.7,13.4,2.7l-1.2,28.6h-13l-2.2-12.7    c-8.4,0-15.6,8.4-15.6,8.4v39.4l14.4,3.7v11.9H735v-11.9l11.5-3.7V51.4L735,47.7V35.8l30.3-0.7L766.5,45.3z"/>
		<path class="st2" d="M835.8,45.3c0,0,13.7-11.5,26.5-11.5c14,0,21.9,10.3,21.9,26.5v39.5l10.1,3.7v11.9h-39.6v-11.9l7.9-3.7V64.4    c0-6.9-3.7-11.9-9.8-11.9c-8.9,0-15.4,8.5-15.4,8.5v38.9l7.9,3.7v11.9h-41.1v-11.9l11.5-3.7V51.4l-11.5-3.7V35.8l30.5-0.7    L835.8,45.3z"/>
		<path class="st2" d="M924,80.2c0.9,11.9,7.5,18.9,17.4,18.9c12,0,24.2-7,24.2-7l6.2,12.4c0,0-14.4,12.5-32.9,12.5    c-24.8,0-37.5-14.9-37.5-40.3c0-26.1,14.3-43.2,38.5-43.2c21.5,0,32.7,13.7,32.7,35c0,5.7-0.9,11.2-0.9,11.6H924z M950.4,66.4    c0-8.5-3.5-14.9-11.8-14.9c-8.1,0-13.1,6.1-14.3,14.9H950.4z"/>
		<path class="st2" d="M1115.8,115.6h-39.1v-11.9l7.6-3.7V64.4c0-8.2-2.3-12.2-8.4-12.2c-9.4,0-16,7.8-16,7.8v40l7.5,3.7v11.9h-36.6    v-11.9l7.5-3.7V64.4c0-8.2-2-12.2-8.2-12.2c-9.4,0-16.1,7.8-16.1,7.8v40l7.6,3.7v11.9h-40.3v-11.9l11.1-3.7V51.4l-11-3.7V35.8    l30.1-0.7l1,10.6c0,0,12.5-12.1,25.2-12.1c10.2,0,16.6,4.9,19.9,12.8c2.4-2.5,13.3-12.8,26.1-12.8c15.1,0,22.2,10.1,22.2,26.8    v39.5l9.8,3.7V115.6z"/>
		<path class="st2" d="M1198.2,73.8c0,26.8-15.1,43.2-38.5,43.2c-23.5,0-36.7-12.7-36.7-41c0-26.8,15.4-42.5,38.9-42.5    C1185.3,33.6,1198.2,48.2,1198.2,73.8z M1145.4,75.3c0,16.4,4.6,23.9,15.1,23.9c10.4,0,15.4-6.7,15.4-24.6    c0-15.2-4.3-23.1-14.7-23.1C1150.7,51.4,1145.4,57.4,1145.4,75.3z"/>
		<path class="st2" d="M1204,35.8l33.1-0.7v51.4c0,8.2,2.3,11.9,8.8,11.9c9.4,0,16.3-8.1,16.3-8.1V51.4l-11.5-3.7V35.8l33.1-0.7    v64.9l11.5,3v11.6l-30.4,1l-1.4-10.4c0,0-11.5,11.9-25.2,11.9c-14.4,0-22.8-10-22.8-26.7V51.4l-11.5-3.7V35.8z"/>
		<path class="st2" d="M1358.2,107.8c-7.1,5.4-15.1,9.2-24.5,9.2c-16.6,0-21.3-11.9-21.3-29.1V53.7H1299V39.2l13.4-1.9V16.7l21.6-4    v24.6h20.2v16.4H1334v32.8c0,9.5,1.6,13.4,7.6,13.4c3.9,0,9.5-2.4,11.4-3.4L1358.2,107.8z"/>
		<path class="st2" d="M1394.2,43.7c4.2-3.6,13.5-10.1,24.2-10.1c14.7,0,22.6,10.1,22.6,26.8v39.5l10.1,3.7v11.9h-39.2v-11.9    l7.5-3.6V64c0-7.5-2.9-11.9-9.5-11.9c-8.1,0-15.7,7.9-15.7,7.9v40l7.6,3.7v11.9h-40.8v-11.9l11.5-3.7V16.1l-11.5-3V1.2l33.1-1.2    V43.7z"/>
		<path class="st2" d="M495.8,234.7c0,17.2,4.8,23.9,18.9,23.9c15.3,0,18.6-8.5,18.6-26.1v-44.7l-11.2-4.5v-12.7l44.4-0.7v13.4    l-10.8,4.5v44.7c0,28.8-10.7,44.3-41.6,44.3c-29,0-40.5-13.3-40.5-42.1v-47l-10.7-4.5v-12.7l44.2-0.7v13.4l-11.2,4.5V234.7z"/>
		<path class="st2" d="M606.6,204.7c0,0,13.7-11.5,26.5-11.5c14,0,21.9,10.3,21.9,26.5v39.5l10.1,3.7V275h-39.6V263l7.9-3.7v-35.5    c0-6.9-3.7-11.9-9.8-11.9c-8.9,0-15.4,8.5-15.4,8.5v38.9l7.9,3.7V275H575V263l11.5-3.7v-48.5l-11.5-3.7v-11.9l30.5-0.7    L606.6,204.7z"/>
		<path class="st2" d="M715.5,263V275h-43.2V263l11.5-3.7v-48.5l-11.5-3.7v-11.9l33.1-0.7v64.9L715.5,263z M693.6,156.4    c7.5,0,12.1,4,12.1,13.4c0,8.8-6.2,13.6-12.1,13.6c-7.8,0-12.4-4.8-12.4-13.6C681.2,161.3,687.1,156.4,693.6,156.4z"/>
		<path class="st2" d="M766.2,195.2l37.8-0.7v12.7l-8.2,1.9L772.6,275h-23.8L726,209.5l-6.9-2.4v-11.9l37.8-0.7v12.7l-8.1,1.5    l13.1,44l12.7-43.5l-8.4-1.9V195.2z"/>
		<path class="st2" d="M827.9,239.6c0.9,11.9,7.5,18.9,17.4,18.9c12,0,24.2-7,24.2-7l6.2,12.4c0,0-14.4,12.5-32.9,12.5    c-24.8,0-37.5-14.9-37.5-40.3c0-26.1,14.3-43.2,38.5-43.2c21.5,0,32.7,13.7,32.7,35c0,5.7-0.9,11.2-0.9,11.6H827.9z M854.3,225.7    c0-8.5-3.5-14.9-11.8-14.9c-8.1,0-13.1,6.1-14.3,14.9H854.3z"/>
		<path class="st2" d="M916.8,204.7c0,0,10.4-11.8,20-11.8c7.9,0,13.4,2.7,13.4,2.7l-1.2,28.6h-13l-2.2-12.7    c-8.4,0-15.6,8.4-15.6,8.4v39.4l14.4,3.7V275h-47.6V263l11.5-3.7v-48.5l-11.5-3.7v-11.9l30.3-0.7L916.8,204.7z"/>
		<path class="st2" d="M969.1,258.6c0,0,5,1.5,12.1,1.5c7.9,0,11.8-2.5,11.8-7.3c0-12.2-38.5-7.8-38.5-34.3    c0-18.6,14.4-25.5,29.7-25.5c13,0,26.8,4.5,26.8,4.5l-0.6,22.4h-12.2l-2.2-9c0,0-4.2-1.5-9.9-1.5c-6.2,0-9.9,2.7-9.9,7.6    c0,12.1,38.5,6.9,38.5,32.7c0,17.1-13.4,26.8-33.1,26.8c-13.7,0-26.5-3.3-26.5-3.3v-24.3h13L969.1,258.6z"/>
		<path class="st2" d="M1066.5,263V275h-43.2V263l11.5-3.7v-48.5l-11.5-3.7v-11.9l33.1-0.7v64.9L1066.5,263z M1044.6,156.4    c7.5,0,12.1,4,12.1,13.4c0,8.8-6.2,13.6-12.1,13.6c-7.8,0-12.4-4.8-12.4-13.6C1032.2,161.3,1038.1,156.4,1044.6,156.4z"/>
		<path class="st2" d="M1130.8,267.2c-7.1,5.4-15.1,9.2-24.5,9.2c-16.6,0-21.3-11.9-21.3-29.1v-34.3h-13.4v-14.5l13.4-1.9v-20.6    l21.6-4v24.6h20.2v16.4h-20.2v32.8c0,9.5,1.6,13.4,7.6,13.4c3.9,0,9.5-2.4,11.4-3.4L1130.8,267.2z"/>
		<path class="st2" d="M1131.5,195.2l38.5-0.7v12.7l-8.1,1.5l12.8,41.8L1187,209l-8.4-1.9v-11.9l38.8-0.7v12.7l-8.9,1.9l-21.2,61.1    c-6.9,19.7-16.3,40.6-39.2,40.6c-4.9,0-14-1.2-14-1.2l2-16h9.4c11.5,0,16.9-12.7,19.3-18.5l-25.7-65.6l-7.6-2.4V195.2z"/>
	</g>
</g>
<g id="_x0022_U_x0022_">
	<g>
		<defs>
			<path id="SVGID_1_" d="M354.6,11.6v174.5c0,33.4-21.8,54.9-55.5,54.9s-55.5-21.6-55.5-54.9V49.5h4.7v136.6     c0,30.5,19.9,50.3,50.8,50.3s50.8-19.7,50.8-50.3V49.5h-18.9v136.6c0,19.3-10.4,31.4-32,31.4s-32-12.1-32-31.4V30.5h-42.3v150.3     c0,48,27.8,76.7,74.2,76.7c46.5,0,74.2-28.7,74.2-76.7V30.6h4.6v150.2c0,50.9-29.5,81.4-78.9,81.4c-49.4,0-78.9-30.4-78.9-81.4     V11.6h-18.9v169.2c0,60.5,36.9,100.2,97.8,100.2c60.9,0,97.8-39.7,97.8-100.2V11.6H354.6z"/>
		</defs>
		<clipPath id="SVGID_2_">
			<use xlink:href="#SVGID_1_" style="overflow:visible;"/>
		</clipPath>
		<g class="st3">
			<g>
				<path class="st4" d="M235.2-2.2v187.7c0,38.5,26.1,64.3,64.9,64.3c38.8,0,64.8-25.8,64.8-64.3V-2.2"/>
				<g>
					<g>
						<rect x="188.1" y="-2.2" class="st5" width="94.2" height="6.2"/>
						<rect x="188.1" y="0.8" class="st6" width="94.2" height="6.2"/>
						<rect x="188.1" y="3.8" class="st6" width="94.2" height="6.2"/>
						<rect x="188.1" y="6.8" class="st7" width="94.2" height="6.2"/>
						<rect x="188.1" y="9.8" class="st8" width="94.2" height="6.2"/>
						<rect x="188.1" y="12.8" class="st9" width="94.2" height="6.2"/>
						<rect x="188.1" y="15.8" class="st10" width="94.2" height="6.2"/>
						<rect x="188.1" y="18.8" class="st11" width="94.2" height="6.2"/>
						<rect x="188.1" y="21.8" class="st11" width="94.2" height="6.2"/>
						<rect x="188.1" y="24.8" class="st12" width="94.2" height="6.2"/>
						<rect x="188.1" y="27.8" class="st13" width="94.2" height="6.2"/>
						<rect x="188.1" y="30.8" class="st14" width="94.2" height="6.2"/>
						<rect x="188.1" y="33.8" class="st14" width="94.2" height="6.2"/>
						<rect x="188.1" y="36.8" class="st15" width="94.2" height="6.2"/>
						<rect x="188.1" y="39.7" class="st16" width="94.2" height="6.2"/>
						<rect x="188.1" y="42.7" class="st17" width="94.2" height="6.2"/>
						<rect x="188.1" y="45.7" class="st18" width="94.2" height="6.2"/>
						<rect x="188.1" y="48.7" class="st19" width="94.2" height="6.2"/>
						<rect x="188.1" y="51.7" class="st20" width="94.2" height="6.2"/>
						<rect x="188.1" y="54.7" class="st21" width="94.2" height="6.2"/>
						<rect x="188.1" y="57.7" class="st21" width="94.2" height="6.2"/>
						<rect x="188.1" y="60.7" class="st22" width="94.2" height="6.2"/>
						<rect x="188.1" y="63.7" class="st23" width="94.2" height="6.2"/>
						<rect x="188.1" y="66.7" class="st23" width="94.2" height="6.2"/>
						<rect x="188.1" y="69.7" class="st24" width="94.2" height="6.2"/>
						<rect x="188.1" y="72.7" class="st25" width="94.2" height="6.2"/>
						<rect x="188.1" y="75.7" class="st25" width="94.2" height="6.2"/>
						<rect x="188.1" y="78.6" class="st26" width="94.2" height="6.2"/>
						<rect x="188.1" y="81.6" class="st27" width="94.2" height="6.2"/>
						<rect x="188.1" y="84.6" class="st28" width="94.2" height="6.2"/>
						<rect x="188.1" y="87.6" class="st29" width="94.2" height="6.2"/>
						<rect x="188.1" y="90.6" class="st30" width="94.2" height="6.2"/>
						<rect x="188.1" y="93.6" class="st31" width="94.2" height="6.2"/>
						<rect x="188.1" y="96.6" class="st32" width="94.2" height="6.2"/>
						<rect x="188.1" y="99.6" class="st33" width="94.2" height="6.2"/>
						<rect x="188.1" y="102.6" class="st34" width="94.2" height="6.2"/>
						<rect x="188.1" y="105.6" class="st35" width="94.2" height="6.2"/>
						<rect x="188.1" y="108.6" class="st36" width="94.2" height="6.2"/>
						<rect x="188.1" y="111.6" class="st37" width="94.2" height="6.2"/>
						<rect x="188.1" y="114.6" class="st38" width="94.2" height="6.2"/>
						<rect x="188.1" y="117.5" class="st39" width="94.2" height="6.2"/>
						<rect x="188.1" y="120.5" class="st40" width="94.2" height="6.2"/>
						<rect x="188.1" y="123.5" class="st40" width="94.2" height="6.2"/>
						<rect x="188.1" y="126.5" class="st41" width="94.2" height="6.2"/>
						<rect x="188.1" y="129.5" class="st41" width="94.2" height="6.2"/>
						<rect x="188.1" y="132.5" class="st42" width="94.2" height="6.2"/>
						<rect x="188.1" y="135.5" class="st43" width="94.2" height="6.2"/>
						<rect x="188.1" y="138.5" class="st43" width="94.2" height="6.2"/>
						<rect x="188.1" y="141.5" class="st44" width="94.2" height="6.2"/>
						<rect x="188.1" y="144.5" class="st44" width="94.2" height="6.2"/>
						<rect x="188.1" y="147.5" class="st45" width="94.2" height="6.2"/>
						<rect x="188.1" y="150.5" class="st45" width="94.2" height="6.2"/>
						<rect x="188.1" y="153.5" class="st46" width="94.2" height="6.2"/>
						<rect x="188.1" y="156.4" class="st47" width="94.2" height="6.2"/>
						<rect x="188.1" y="159.4" class="st48" width="94.2" height="6.2"/>
						<rect x="188.1" y="162.4" class="st49" width="94.2" height="6.2"/>
						<rect x="188.1" y="165.4" class="st50" width="94.2" height="6.2"/>
						<rect x="188.1" y="168.4" class="st51" width="94.2" height="6.2"/>
						<rect x="188.1" y="171.4" class="st52" width="94.2" height="6.2"/>
						<rect x="188.1" y="174.4" class="st53" width="94.2" height="6.2"/>
						<rect x="188.1" y="177.4" class="st54" width="94.2" height="6.2"/>
						<path class="st54" d="M188.2,187.2c-0.1-3.3,0-4.5-0.1-6.9h94.2c0,1.8,0,4.8,0,5.6L188.2,187.2z"/>
						<path class="st55" d="M188.4,192c-0.1-3.2-0.3-7-0.2-8.6h94.2c0,2.6,0.1,2.9,0.1,3.9L188.4,192z"/>
						<path class="st55" d="M188.6,196.7c-0.2-3.3-0.3-6.5-0.4-9.8l94.1-1c0.1,0.9,0.1,1.7,0.1,2.6L188.6,196.7z"/>
						<path class="st56" d="M189.2,201.5c-0.5-3.4-0.8-6.7-0.9-9.9l94-4.4c0,0.9,0,1.7,0.2,2.5L189.2,201.5z"/>
						<path class="st57" d="M189.9,206.3c-0.5-3.3-0.9-6.7-1.3-10.1l93.8-7.9c0.1,0.8,0.3,1.5,0.3,2.3L189.9,206.3z"/>
						<path class="st58" d="M190.9,211.2c-0.8-3.4-1.2-6.7-1.7-10.1l93.4-11.6c0.1,0.8,0.1,1.6,0.3,2.2L190.9,211.2z"/>
						<path class="st59" d="M192,216.1c-0.8-3.4-1.7-6.8-2.2-10.2l92.9-15.3c0.1,0.8,0.4,1.3,0.4,2L192,216.1z"/>
						<path class="st60" d="M193.4,221c-1.2-3.4-1.8-6.8-2.6-10.2l92.2-19.2c0.2,0.6,0.2,1.4,0.5,1.9L193.4,221z"/>
						<path class="st61" d="M195,225.9c-1.1-3.4-2.4-6.8-3.1-10.2l91.2-23.2c0,0.7,0.4,1.1,0.5,1.7L195,225.9z"/>
						<path class="st61" d="M196.9,230.8c-1.5-3.4-2.5-6.8-3.6-10.2l90.1-27.2c0.3,0.5,0.3,1.2,0.5,1.6L196.9,230.8z"/>
						<path class="st62" d="M199,235.7c-1.5-3.3-3.1-6.7-4.1-10.1l88.8-31.4c0.1,0.6,0.4,0.9,0.6,1.4L199,235.7z"/>
						<path class="st62" d="M201.4,240.4c-1.8-3.3-3.2-6.6-4.7-10l87.2-35.5c0.3,0.4,0.3,0.9,0.6,1.3L201.4,240.4z"/>
						<path class="st63" d="M204.1,245.1c-1.9-3.2-3.8-6.5-5.2-9.8l85.4-39.7c0.1,0.5,0.4,0.8,0.6,1.2L204.1,245.1z"/>
						<path class="st64" d="M206.9,249.7c-2.1-3.1-3.9-6.4-5.8-9.6l83.3-43.9c0.3,0.3,0.4,0.7,0.6,1L206.9,249.7z"/>
						<path class="st65" d="M210.1,254.1c-2.3-3-4.5-6.1-6.3-9.4l80.9-48.1c0.1,0.4,0.4,0.6,0.6,0.9L210.1,254.1z"/>
						<path class="st66" d="M213.5,258.4c-2.5-2.9-4.6-6-6.8-9.1l78.4-52.2c0.3,0.2,0.4,0.6,0.7,0.9L213.5,258.4z"/>
						<path class="st67" d="M217.1,262.5c-2.6-2.8-5.1-5.7-7.3-8.8l75.5-56.2c0.1,0.4,0.4,0.5,0.7,0.8L217.1,262.5z"/>
						<path class="st68" d="M221,266.5c-2.7-2.6-5.2-5.5-7.8-8.4l72.5-60.1c0.3,0.2,0.4,0.5,0.7,0.7L221,266.5z"/>
						<path class="st69" d="M225,270.1c-2.9-2.5-5.7-5.1-8.2-7.9l69.2-63.9c0.2,0.3,0.5,0.5,0.7,0.7L225,270.1z"/>
						<path class="st69" d="M229.2,273.6c-3-2.3-5.8-4.9-8.6-7.5l65.7-67.5c0.3,0.2,0.5,0.5,0.8,0.7L229.2,273.6z"/>
						<path class="st70" d="M233.6,276.8c-3.1-2.2-6.1-4.4-8.9-7l62-70.8c0.2,0.3,0.6,0.4,0.9,0.7L233.6,276.8z"/>
						<path class="st70" d="M238.1,279.9c-3.2-2-6.2-4.3-9.3-6.5l58.2-74c0.4,0.1,0.6,0.4,0.9,0.7L238.1,279.9z"/>
						<path class="st71" d="M242.8,282.6c-3.2-1.8-6.4-3.7-9.5-6l54.3-77c0.2,0.3,0.7,0.4,1,0.6L242.8,282.6z"/>
						<path class="st72" d="M247.5,285.1c-3.3-1.6-6.5-3.6-9.7-5.4L288,200c0.4,0.1,0.7,0.4,1.1,0.6L247.5,285.1z"/>
						<path class="st73" d="M252.3,287.2c-3.3-1.4-6.6-3-9.9-4.9l46.1-82.1c0.3,0.3,0.8,0.4,1.3,0.6L252.3,287.2z"/>
						<path class="st74" d="M257.1,289.3c-3.4-1.3-6.7-2.8-10-4.4l42-84.3c0.5,0.1,0.9,0.4,1.4,0.6L257.1,289.3z"/>
						<path class="st75" d="M262,290.9c-3.4-1-6.7-2.3-10.1-3.8l37.9-86.2c0.4,0.3,0.9,0.4,1.5,0.6L262,290.9z"/>
						<path class="st75" d="M266.9,292.5c-3.4-1-6.8-2.2-10.1-3.3l33.7-87.9c0.6,0.1,1.2,0.3,1.7,0.6L266.9,292.5z"/>
						<path class="st76" d="M271.7,293.6c-3.4-0.7-6.7-1.7-10.1-2.8l29.7-89.4c0.5,0.2,1.1,0.4,1.9,0.5L271.7,293.6z"/>
						<path class="st76" d="M276.6,294.7c-3.4-0.7-6.7-1.4-10.1-2.4l25.6-90.6c0.6,0.2,1.4,0.2,2,0.5L276.6,294.7z"/>
						<path class="st77" d="M281.4,295.5c-3.3-0.4-6.7-1.2-10.1-1.9l21.7-91.6c0.7,0.1,1.3,0.4,2.2,0.4L281.4,295.5z"/>
						<path class="st78" d="M286.2,296.1c-3.3-0.5-6.6-0.8-10-1.5l17.8-92.5c0.7,0.2,1.6,0.2,2.3,0.3L286.2,296.1z"/>
						<path class="st79" d="M290.9,296.5c-3.2-0.1-6.6-0.7-9.9-1.1l14.1-93.1c0.8,0,1.5,0.3,2.4,0.3L290.9,296.5z"/>
						<path class="st79" d="M295.6,296.7c-3.3-0.2-6.4-0.2-9.8-0.7l10.4-93.6c0.7,0.2,1.7,0.1,2.6,0.2L295.6,296.7z"/>
						<path class="st80" d="M300.3,296.9c-3.2-0.1-6.5-0.2-9.7-0.4l6.9-93.9c0.9,0,1.8,0.1,2.7,0.1L300.3,296.9z"/>
						<path class="st80" d="M304.9,296.7c-3.2,0.2-6.5,0.2-9.7,0l3.5-94.1c0.9,0.1,1.8,0.1,2.7,0L304.9,296.7z"/>
						<path class="st81" d="M309.6,296.5c-3.2,0.2-6.5,0.3-9.7,0.4l0.1-94.2c0.9-0.1,1.8-0.1,2.7-0.1L309.6,296.5z"/>
						<path class="st82" d="M314.4,296.1c-3.4,0.5-6.5,0.5-9.8,0.7l-3.2-94.1c0.9-0.1,1.9,0,2.6-0.2L314.4,296.1z"/>
						<path class="st83" d="M319.2,295.4c-3.3,0.4-6.7,1-9.9,1.1l-6.6-93.9c0.9,0,1.6-0.3,2.4-0.3L319.2,295.4z"/>
						<path class="st83" d="M324,294.6c-3.4,0.7-6.6,1-10,1.5l-10.1-93.6c0.8-0.2,1.7-0.1,2.3-0.3L324,294.6z"/>
						<path class="st84" d="M328.8,293.5c-3.4,0.8-6.8,1.6-10.1,1.9L305,202.3c0.9,0,1.5-0.3,2.2-0.4L328.8,293.5z"/>
						<path class="st84" d="M333.7,292.3c-3.4,0.9-6.7,1.6-10.1,2.4l-17.5-92.5c0.7-0.2,1.4-0.3,2-0.5L333.7,292.3z"/>
						<path class="st85" d="M338.6,290.8c-3.4,1.2-6.8,2.2-10.1,2.8l-21.4-91.7c0.7-0.1,1.3-0.3,1.8-0.5L338.6,290.8z"/>
						<path class="st86" d="M343.4,289.1c-3.3,1.2-6.7,2.3-10.1,3.3L308,201.8c0.5-0.2,1.1-0.4,1.7-0.5L343.4,289.1z"/>
						<path class="st87" d="M348.2,287.1c-3.3,1.5-6.7,2.8-10.1,3.8l-29.3-89.5c0.6-0.1,1.1-0.3,1.5-0.6L348.2,287.1z"/>
						<path class="st87" d="M353,284.9c-3.3,1.5-6.6,3-10,4.4l-33.4-88c0.5-0.2,0.9-0.5,1.4-0.6L353,284.9z"/>
						<path class="st88" d="M357.7,282.3c-3.2,1.9-6.5,3.5-9.9,4.9l-37.5-86.4c0.5-0.2,1-0.3,1.3-0.6L357.7,282.3z"/>
						<path class="st89" d="M362.4,279.6c-3.2,1.9-6.4,3.8-9.7,5.4L311,200.6c0.4-0.2,0.7-0.5,1.1-0.6L362.4,279.6z"/>
						<path class="st89" d="M366.9,276.6c-3,2.3-6.2,4.2-9.5,6l-45.8-82.3c0.4-0.2,0.8-0.4,1-0.6L366.9,276.6z"/>
						<path class="st90" d="M371.3,273.4c-3,2.2-6.1,4.5-9.3,6.5L312.1,200c0.4-0.2,0.6-0.5,0.9-0.7L371.3,273.4z"/>
						<path class="st91" d="M375.4,269.8c-2.8,2.6-5.8,4.8-8.9,7l-53.9-77.2c0.3-0.2,0.7-0.4,0.9-0.7L375.4,269.8z"/>
						<path class="st92" d="M379.5,266.2c-2.8,2.6-5.6,5.2-8.6,7.5L313,199.4c0.3-0.2,0.5-0.5,0.8-0.7L379.5,266.2z"/>
						<path class="st92" d="M383.3,262.2c-2.5,2.9-5.3,5.4-8.2,7.9L313.4,199c0.2-0.2,0.6-0.4,0.7-0.7L383.3,262.2z"/>
						<path class="st93" d="M386.9,258.1c-2.5,2.8-5,5.7-7.8,8.4l-65.4-67.7c0.3-0.2,0.4-0.6,0.7-0.7L386.9,258.1z"/>
						<path class="st94" d="M390.3,253.8c-2.2,3.1-4.7,6-7.3,8.8l-68.9-64.2c0.2-0.3,0.5-0.4,0.7-0.8L390.3,253.8z"/>
						<path class="st95" d="M393.5,249.3c-2.2,3.1-4.4,6.2-6.8,9.1L314.4,198c0.2-0.3,0.4-0.6,0.7-0.9L393.5,249.3z"/>
						<path class="st96" d="M396.3,244.7c-1.8,3.3-4,6.3-6.3,9.4l-75.3-56.5c0.2-0.3,0.5-0.5,0.6-0.9L396.3,244.7z"/>
						<path class="st97" d="M399,240c-1.9,3.3-3.6,6.5-5.8,9.6l-78.2-52.5c0.2-0.3,0.3-0.7,0.6-1L399,240z"/>
						<path class="st98" d="M401.3,235.3c-1.4,3.4-3.3,6.6-5.2,9.8l-80.7-48.4c0.2-0.4,0.5-0.6,0.6-1.2L401.3,235.3z"/>
						<path class="st98" d="M403.4,230.4c-1.5,3.4-2.9,6.7-4.7,10l-83.1-44.2c0.2-0.3,0.3-0.9,0.6-1.3L403.4,230.4z"/>
						<path class="st99" d="M405.3,225.6c-1.1,3.4-2.6,6.8-4.1,10.1l-85.2-40.1c0.1-0.5,0.5-0.8,0.6-1.4L405.3,225.6z"/>
						<path class="st99" d="M406.9,220.6c-1.2,3.4-2.1,6.8-3.6,10.2l-87.1-35.9c0.3-0.4,0.3-1.1,0.5-1.6L406.9,220.6z"/>
						<path class="st100" d="M408.2,215.7c-0.7,3.4-2,6.8-3.1,10.2l-88.7-31.7c0.1-0.6,0.5-1,0.5-1.7L408.2,215.7z"/>
						<path class="st100" d="M409.4,210.8c-0.8,3.4-1.4,6.8-2.6,10.2l-90-27.6c0.3-0.5,0.2-1.3,0.5-1.9L409.4,210.8z"/>
						<path class="st101" d="M410.3,206c-0.5,3.3-1.4,6.8-2.2,10.2L317,192.6c0.1-0.7,0.4-1.2,0.4-2L410.3,206z"/>
						<path class="st102" d="M411,201.1c-0.4,3.4-0.8,6.7-1.7,10.1l-92.1-19.6c0.2-0.6,0.2-1.4,0.3-2.2L411,201.1z"/>
						<path class="st102" d="M411.5,196.3c-0.3,3.3-0.8,6.7-1.3,10.1l-92.8-15.6c0-0.8,0.2-1.5,0.3-2.3L411.5,196.3z"/>
						<path class="st103" d="M411.8,191.6c-0.1,3.2-0.4,6.6-0.9,9.9l-93.4-11.9c0.2-0.7,0.2-1.5,0.2-2.5L411.8,191.6z"/>
						<path class="st103" d="M412,186.9c-0.1,3.3-0.2,6.6-0.4,9.8l-93.8-8.2c0-0.9,0-1.8,0.1-2.6L412,186.9z"/>
						<path class="st104" d="M412,183.4c0,1.6-0.1,5.4-0.2,8.6l-94-4.7c0-1,0.2-1.3,0.1-3.9H412z"/>
						<path class="st104" d="M412,180.4c0,2.4,0.1,3.5-0.1,6.9l-94.1-1.3c0.1-0.8,0-3.8,0-5.6H412z"/>
						<rect x="317.8" y="177.4" class="st105" width="94.2" height="6.2"/>
						<rect x="317.8" y="174.4" class="st106" width="94.2" height="6.2"/>
						<rect x="317.8" y="171.4" class="st106" width="94.2" height="6.2"/>
						<rect x="317.8" y="168.4" class="st107" width="94.2" height="6.2"/>
						<rect x="317.8" y="165.4" class="st108" width="94.2" height="6.2"/>
						<rect x="317.8" y="162.4" class="st109" width="94.2" height="6.2"/>
						<rect x="317.8" y="159.4" class="st110" width="94.2" height="6.2"/>
						<rect x="317.8" y="156.4" class="st110" width="94.2" height="6.2"/>
						<rect x="317.8" y="153.5" class="st111" width="94.2" height="6.2"/>
						<rect x="317.8" y="150.5" class="st111" width="94.2" height="6.2"/>
						<rect x="317.8" y="147.5" class="st112" width="94.2" height="6.2"/>
						<rect x="317.8" y="144.5" class="st113" width="94.2" height="6.2"/>
						<rect x="317.8" y="141.5" class="st114" width="94.2" height="6.2"/>
						<rect x="317.8" y="138.5" class="st115" width="94.2" height="6.2"/>
						<rect x="317.8" y="135.5" class="st116" width="94.2" height="6.2"/>
						<rect x="317.8" y="132.5" class="st117" width="94.2" height="6.2"/>
						<rect x="317.8" y="129.5" class="st117" width="94.2" height="6.2"/>
						<rect x="317.8" y="126.5" class="st118" width="94.2" height="6.2"/>
						<rect x="317.8" y="123.5" class="st119" width="94.2" height="6.2"/>
						<rect x="317.8" y="120.5" class="st119" width="94.2" height="6.2"/>
						<rect x="317.8" y="117.5" class="st120" width="94.2" height="6.2"/>
						<rect x="317.8" y="114.6" class="st121" width="94.2" height="6.2"/>
						<rect x="317.8" y="111.6" class="st122" width="94.2" height="6.2"/>
						<rect x="317.8" y="108.6" class="st122" width="94.2" height="6.2"/>
						<rect x="317.8" y="105.6" class="st123" width="94.2" height="6.2"/>
						<rect x="317.8" y="102.6" class="st124" width="94.2" height="6.2"/>
						<rect x="317.8" y="99.6" class="st125" width="94.2" height="6.2"/>
						<rect x="317.8" y="96.6" class="st126" width="94.2" height="6.2"/>
						<rect x="317.8" y="93.6" class="st127" width="94.2" height="6.2"/>
						<rect x="317.8" y="90.6" class="st128" width="94.2" height="6.2"/>
						<rect x="317.8" y="87.6" class="st129" width="94.2" height="6.2"/>
						<rect x="317.8" y="84.6" class="st130" width="94.2" height="6.2"/>
						<rect x="317.8" y="81.6" class="st131" width="94.2" height="6.2"/>
						<rect x="317.8" y="78.6" class="st132" width="94.2" height="6.2"/>
						<rect x="317.8" y="75.7" class="st133" width="94.2" height="6.2"/>
						<rect x="317.8" y="72.7" class="st134" width="94.2" height="6.2"/>
						<rect x="317.8" y="69.7" class="st135" width="94.2" height="6.2"/>
						<rect x="317.8" y="66.7" class="st136" width="94.2" height="6.2"/>
						<rect x="317.8" y="63.7" class="st137" width="94.2" height="6.2"/>
						<rect x="317.8" y="60.7" class="st138" width="94.2" height="6.2"/>
						<rect x="317.8" y="57.7" class="st139" width="94.2" height="6.2"/>
						<rect x="317.8" y="54.7" class="st140" width="94.2" height="6.2"/>
						<rect x="317.8" y="51.7" class="st141" width="94.2" height="6.2"/>
						<rect x="317.8" y="48.7" class="st142" width="94.2" height="6.2"/>
						<rect x="317.8" y="45.7" class="st143" width="94.2" height="6.2"/>
						<rect x="317.8" y="42.7" class="st144" width="94.2" height="6.2"/>
						<rect x="317.8" y="39.7" class="st145" width="94.2" height="6.2"/>
						<rect x="317.8" y="36.7" class="st146" width="94.2" height="6.2"/>
						<rect x="317.8" y="33.8" class="st147" width="94.2" height="6.2"/>
						<rect x="317.8" y="30.8" class="st148" width="94.2" height="6.2"/>
						<rect x="317.8" y="27.8" class="st149" width="94.2" height="6.2"/>
						<rect x="317.8" y="24.8" class="st150" width="94.2" height="6.2"/>
						<rect x="317.8" y="21.8" class="st150" width="94.2" height="6.2"/>
						<rect x="317.8" y="18.8" class="st151" width="94.2" height="6.2"/>
						<rect x="317.8" y="15.8" class="st151" width="94.2" height="6.2"/>
						<rect x="317.8" y="12.8" class="st151" width="94.2" height="6.2"/>
						<rect x="317.8" y="9.8" class="st151" width="94.2" height="6.2"/>
						<rect x="317.8" y="6.8" class="st151" width="94.2" height="6.2"/>
						<rect x="317.8" y="3.8" class="st152" width="94.2" height="6.2"/>
						<rect x="317.8" y="0.8" class="st152" width="94.2" height="6.2"/>
						<rect x="317.8" y="-2.2" class="st152" width="94.2" height="6.2"/>
					</g>
				</g>
			</g>
		</g>
	</g>
</g>
<g id="_x0022_B">
	<path d="M0,11.6h81.5c44.7,0,65.4,4.3,84.7,25.7c11.8,12.1,15.7,28.2,15.7,43.6c0,20.4-9.3,41.1-30.7,53.2   c42.5,15,43.6,50.4,43.6,61.5c0,21.1-8.2,44.3-24.3,57.5C146.2,273.5,128.7,276,84,276H0V11.6z M64.7,112h23.9   c9.3,0,28.6,0,28.6-21.1c0-20-18.2-20-28.6-20H64.7V112z M64.7,216.7h31.8c8.6,0,33.6,0,33.6-25.4c0-22.9-22.9-22.9-33.6-22.9H64.7   V216.7z"/>
</g>
</svg>