<?xml version="1.0" encoding="utf-8"?>
<!-- Generator: Adobe Illustrator 19.1.0, SVG Export Plug-In . SVG Version: 6.00 Build 0)  -->
<svg version="1.1" id="Layer_1" xmlns="http://www.w3.org/2000/svg" xmlns:xlink="http://www.w3.org/1999/xlink" x="0px" y="0px"
	 viewBox="-155 373 283.5 95.9" style="enable-background:new -155 373 283.5 95.9;" xml:space="preserve">
<style type="text/css">
	.st0{fill:#D5942A;}
</style>
<path class="st0" d="M-149.8,437.7h4.5v-17h15.1v17h4.5V403h-4.5v15.7h-15.2V403l-9.6,1.2v0.9c3.5,0.4,5.2,0.3,5.2,3.8V437.7z"/>
<path class="st0" d="M-99.5,409.9h-2.4v18c0,3.9,0,8.6-6.8,8.6c-6,0-6-5.9-6-9v-17.6l-7.7,0.9v0.7c2.8,0.3,4.1,0.2,4.1,3.1v13
	c0,5.7,0.7,10.6,9.5,10.6c9.3,0,9.3-5.7,9.3-10.7C-99.5,427.5-99.5,409.9-99.5,409.9z"/>
<path class="st0" d="M-92.5,437.7h4.5c8.6,0,15.3-1.7,15.3-13.9c0-12.2-6.4-13.9-15.2-13.9h-8.8v0.7c3.6,0.7,4.1,0.9,4.1,4
	L-92.5,437.7L-92.5,437.7z M-88.9,414.7c0-2.7,0.3-3.1,2.8-3.1c7.4,0,9.3,5.2,9.3,12.3c0,8.6-3.3,12.3-10,12.3c-2.2,0-2.2-1-2.2-3.1
	L-88.9,414.7L-88.9,414.7z"/>
<path class="st0" d="M-67.2,437.7h4.5c8.6,0,15.3-1.7,15.3-13.9c0-12.2-6.4-13.9-15.1-13.9h-8.8v0.7c3.6,0.7,4.1,0.9,4.1,4V437.7z
	 M-63.6,414.7c0-2.7,0.3-3.1,2.8-3.1c7.4,0,9.3,5.2,9.3,12.3c0,8.6-3.3,12.3-9.9,12.3c-2.2,0-2.2-1-2.2-3.1
	C-63.6,433.1-63.6,414.7-63.6,414.7z"/>
<path class="st0" d="M-41.4,437.7h16l0.3-5.6h-1.3c-0.6,3.1-0.8,4-3.6,4h-4.5c-3,0-3.4,0-3.4-2.4V424h5.2c3.5,0,3.6,1.1,4,3.5h1V419
	h-1c-0.3,1.9-0.6,3.4-4,3.4h-5.2v-8.1c0-2.2,0.2-2.7,2.5-2.7h4.3c3.4,0,3.4,1.3,3.8,3.4h1.3l-0.2-5h-19.5v0.7
	c3.6,0.5,4.2,1.3,4.2,3.6L-41.4,437.7L-41.4,437.7z"/>
<path class="st0" d="M-18.3,437.7h3.6v-13.6h2.1l8.2,13.7h4l-8.3-13.9c3.6-0.5,7.1-2,7.1-6.7c0-5.9-4.2-7.1-9.2-7.1h-11.7v0.7
	c3.5,0.7,4.2,0.8,4.2,3.7L-18.3,437.7L-18.3,437.7z M-14.7,414.3c0-2.4,0.2-2.8,2.9-2.8c3.2,0,6.2,1.2,6.2,5.1c0,5.8-5,5.8-8,5.8
	h-1.1L-14.7,414.3L-14.7,414.3z"/>
<path class="st0" d="M18.3,410.2c-1.2-0.2-3.4-0.7-6.1-0.7c-5.5,0-9,2.5-9,7c0,8.7,13.3,7.6,13.3,14.6c0,3.5-2.1,5.2-5.8,5.2
	c-2.8,0-5.7-1.1-7.2-1.8v2.9c0.7,0.2,3.7,0.8,6.6,0.8c5.3,0,10-2.3,10-8c0-9-13.6-8.2-13.6-14.7c0-2.5,2-4.1,5-4.1
	c2.9,0,5.5,1.1,6.8,1.7V410.2z"/>
<path class="st0" d="M26.4,437.7H30V424h5.2c3.5,0,3.6,1.1,4,3.5h0.9V419h-0.9c-0.3,1.9-0.6,3.4-4,3.4H30v-8.1
	c0-2.2,0.2-2.7,2.5-2.7h4.3c3.4,0,3.4,1.3,3.8,3.4h1.3l-0.2-5H22.2v0.7c3.6,0.5,4.2,1.3,4.2,3.6L26.4,437.7L26.4,437.7z"/>
<path class="st0" d="M48.1,437.7h3.6v-27.8l-7.7,0.9v0.7c2.8,0.3,4.1,0.2,4.1,3.1L48.1,437.7L48.1,437.7z"/>
<path class="st0" d="M60.5,437.7h16l0.3-5.6h-1.3c-0.6,3.1-0.8,4-3.6,4h-4.5c-3,0-3.4,0-3.4-2.4V424h5.2c3.5,0,3.6,1.1,4,3.5h1V419
	h-1c-0.3,1.9-0.6,3.4-4,3.4H64v-8.1c0-2.2,0.2-2.7,2.5-2.7h4.3c3.4,0,3.4,1.3,3.8,3.4h1.3l-0.2-5H56.2v0.7c3.6,0.5,4.2,1.3,4.2,3.6
	L60.5,437.7L60.5,437.7z"/>
<path class="st0" d="M83.6,437.7h15.3l0.2-6.1h-1.3c-0.3,2.8-0.5,4.5-3.6,4.5h-3.7c-3.4,0-3.4-0.2-3.4-3.6v-22.6l-7.7,0.9v0.7
	c2.8,0.3,4.1,0.2,4.1,3.1L83.6,437.7L83.6,437.7z"/>
<path class="st0" d="M103.8,437.7h5.6c10.8,0,19.1-2.1,19.1-17.3c0-15.3-8-17.4-18.9-17.4H98.7v0.9c4.5,0.9,5.2,1.1,5.2,5v28.8
	H103.8z M108.3,408.9c0-3.3,0.4-3.9,3.5-3.9c9.2,0,11.6,6.5,11.6,15.4c0,10.8-4.1,15.3-12.4,15.3c-2.7,0-2.7-1.3-2.7-3.8V408.9z"/>
<path class="st0" d="M-83.7,377.6c0.4-2.1,1-3,3.4-3l0.1-0.6h-7.4l-0.1,0.6c1.2,0,2.4,0.2,2.4,1.7c0,0.3-0.1,1-0.2,1.3l-2.2,11.1
	c-0.5,2.5-1.3,5.5-6,5.5c-2.3,0-4.1-1.4-4.1-3.6c0-1,0.2-2,0.4-3l2-10c0.4-2.1,1-3,3.4-3l0.1-0.6h-8.5l-0.2,0.6
	c1.3,0,2.5,0.2,2.5,1.7c0,0.3-0.1,1-0.2,1.3l-2,10c-0.2,1.1-0.4,2.1-0.4,3.2c0,3.3,3,4.7,6.3,4.7c7.1,0,7.7-3.7,8.4-6.7L-83.7,377.6
	z"/>
<path class="st0" d="M-79.6,395.1h2.5c0.6-3.6,4.6-13,7.1-13c0.5,0,0.7,0.4,0.7,0.9c0,0.3-0.1,0.9-0.2,1.3l-1.7,7.7
	c-0.2,0.7-0.3,1.4-0.3,2c0,0.8,0.5,1.5,1.3,1.5c1.6,0,3.9-2.8,4.9-3.8l-0.4-0.3c-0.8,0.8-2.1,2.2-2.8,2.2c-0.2,0-0.3-0.3-0.3-0.5
	c0-0.3,0.1-0.7,0.2-1l1.8-8c0.1-0.6,0.3-1.4,0.3-1.8c0-1.3-0.7-2.1-1.8-2.1c-3.2,0-6.1,5.7-7.2,8.6l-0.1-0.1l1-5.1
	c0.2-0.7,0.3-1.4,0.3-2c0-0.8-0.4-1.5-1.2-1.5c-1.6,0-3.9,2.8-4.9,3.8l0.4,0.4c0.8-0.8,2.2-2.2,2.8-2.2c0.2,0,0.3,0.3,0.3,0.5
	c0,0.3-0.1,0.7-0.1,1L-79.6,395.1z"/>
<path class="st0" d="M-55.4,391.3c-0.8,0.8-2.2,2.2-2.8,2.2c-0.2,0-0.3-0.3-0.3-0.5c0-0.3,0.1-0.7,0.1-1l1.7-8.4
	c0.1-0.6,0.3-1.4,0.3-1.8c0-0.9-0.4-1.7-1.2-1.7c-1.6,0-3.9,2.8-4.9,3.8l0.4,0.4c0.8-0.8,2.2-2.2,2.8-2.2c0.2,0,0.3,0.3,0.3,0.5
	c0,0.3-0.1,0.7-0.1,1l-1.7,8.4c-0.1,0.7-0.3,1.4-0.3,2c0,0.8,0.5,1.5,1.3,1.5c1.6,0,3.9-2.8,4.9-3.8L-55.4,391.3z M-56.7,377.2
	c1,0,1.8-0.8,1.8-1.8s-0.8-1.8-1.8-1.8s-1.8,0.8-1.8,1.8C-58.6,376.5-57.7,377.2-56.7,377.2"/>
<path class="st0" d="M-46.4,384.3c0.1-0.7,0.4-1.9,0.4-2.3c0-1-0.5-1.8-1.4-1.8c-1.5,0-3.5,2.6-4.7,3.8l0.4,0.4
	c0.8-0.8,2.2-2.2,2.8-2.2c0.2,0,0.3,0.3,0.3,0.5c0,0.3,0,0.7-0.1,1l-1.9,9.1c-0.1,0.5-0.2,1-0.2,1.5c0,0.9,0.5,1.2,1.1,1.2
	c4.2,0,10.7-7.4,10.7-13.3c0-0.8-0.2-2-1.5-2c-0.9,0-1.5,0.7-1.5,1.5c0,1,0.9,1.5,0.9,3.1c0,4.3-5.3,9.2-6.7,9.2
	c-0.3,0-0.4-0.2-0.4-0.5c0-0.3,0.1-0.8,0.2-1.2L-46.4,384.3z"/>
<path class="st0" d="M-26.1,393.8c-0.7,0.3-1.4,0.4-2.1,0.4c-3.9,0-4.8-2.2-4.8-4.9c0-1.1,0.2-2.1,0.4-3.2h3.4c2.4,0,5.1-0.2,5.1-3
	c0-2.1-1.9-3-4-3c-5.8,0-7.7,5.4-7.7,9.8c0,3.7,2,5.5,5.2,5.5c2,0,3.6-0.5,4.4-0.7L-26.1,393.8z M-32.3,385.2c0.3-1.4,1.4-4,3.8-4
	c1.1,0,2,0.8,2,1.7c0,2-1.8,2.3-3.1,2.3H-32.3z"/>
<path class="st0" d="M-20.5,395.1h2.5c1.7-8.5,4.4-12.4,5.3-12.4c0.3,0,0.7,0.5,1.4,0.5c0.8,0,1.5-0.7,1.5-1.6
	c0-0.8-0.5-1.5-1.5-1.5c-2.5,0-4.2,4.3-4.8,5.8l-0.1-0.1l0.5-2.3c0.1-0.7,0.3-1.4,0.3-2c0-0.8-0.5-1.5-1.3-1.5
	c-1.6,0-3.9,2.8-4.9,3.8l0.4,0.3c0.8-0.8,2.2-2.2,2.8-2.2c0.2,0,0.3,0.3,0.3,0.5c0,0.3-0.1,0.7-0.1,1L-20.5,395.1z"/>
<path class="st0" d="M1.4,384.1l0.5-3.3c-0.7-0.2-1.9-0.6-3.5-0.6c-2.9,0-5.6,1.4-5.6,4.4c0,3.8,5.5,3.8,5.5,6.9c0,1.8-1.7,3-3.5,3
	c-2.5,0-2.8-1.7-2.9-3.1h-0.7l-0.4,3.5c0.6,0.2,1.8,0.6,3.6,0.6c3.7,0,6.7-1.4,6.7-4.9c0-4.1-5.5-4-5.5-7c0-1.6,1.3-2.4,2.5-2.4
	c1.9,0,2.8,1.4,2.8,2.9H1.4z"/>
<path class="st0" d="M12.1,391.3c-0.8,0.8-2.2,2.2-2.8,2.2c-0.2,0-0.3-0.3-0.3-0.5c0-0.3,0.1-0.7,0.1-1l1.7-8.4
	c0.1-0.6,0.3-1.4,0.3-1.8c0-0.9-0.4-1.7-1.2-1.7c-1.6,0-3.9,2.8-4.9,3.8l0.4,0.4c0.8-0.8,2.2-2.2,2.8-2.2c0.2,0,0.3,0.3,0.3,0.5
	c0,0.3-0.1,0.7-0.1,1L6.7,392c-0.1,0.7-0.3,1.4-0.3,2c0,0.8,0.5,1.5,1.3,1.5c1.6,0,3.9-2.8,4.9-3.8L12.1,391.3z M10.8,377.2
	c1,0,1.8-0.8,1.8-1.8s-0.8-1.8-1.8-1.8S9,374.4,9,375.4C9,376.5,9.8,377.2,10.8,377.2"/>
<path class="st0" d="M22.5,391.3c-0.9,0.9-2.3,2.2-3,2.2c-0.3,0-0.5-0.3-0.5-0.5c0-0.3,0.1-0.7,0.2-1l2.1-10.5h4.2l0.2-1h-4.2l1-4.7
	h-0.8c-0.8,3.2-2.3,4.7-5.3,4.7l-0.2,1h2.6l-2,10.5c-0.1,0.7-0.3,1.4-0.3,2c0,0.8,0.5,1.5,1.4,1.5c1.7,0,4.1-2.7,5.1-3.8L22.5,391.3
	z"/>
<path class="st0" d="M32,382.6c-0.2-1.3-0.6-2.4-1.7-2.4c-1.1,0-4,2.7-4.7,3.4L26,384c0.7-0.6,2-1.8,2.8-1.8c0.5,0,0.8,0.6,1.1,2
	l2.1,12.2c-0.7,0.8-2.9,3.3-4.1,3.3c-0.7,0-1-0.9-2-0.9c-0.9,0-1.5,0.7-1.5,1.5s0.6,1.5,1.6,1.5c4.1,0,14.1-13.2,14.1-19.8
	c0-1.2-0.6-1.9-1.6-1.9c-0.9,0-1.6,0.7-1.6,1.5c0,1,1,1.6,1,3.1c0,3-2.9,7.6-3.9,9.2L32,382.6z"/>
<path class="st0" d="M58.8,395.5c4.9,0,7.5-5.5,7.5-9.8c0-3.1-1.5-5.5-4.9-5.5c-5,0-7.6,5.6-7.6,9.9C53.7,393,55.2,395.5,58.8,395.5
	 M56.6,390.9c0-3.1,1.3-9.7,4.6-9.7c1.6,0,2.2,1.5,2.2,3.3c0,3-1.2,9.9-4.6,9.9C57.6,394.4,56.6,393.4,56.6,390.9"/>
<path class="st0" d="M76.2,381.5h4.4l0.2-1h-4.3l0.4-2.3c0.4-2.2,1-4.2,2.5-4.2c1.8,0,1.1,2.6,3.1,2.6c0.8,0,1.6-0.6,1.6-1.5
	c0-1.3-1.7-2.1-3.5-2.1c-4,0-5.6,2.5-6.2,5.9l-0.3,1.6h-2.5l-0.2,1h2.5l-3.1,15.2c-0.5,2.6-1.1,4.1-2.5,4.1c-1.7,0-1.1-2.5-3.1-2.5
	c-0.9,0-1.6,0.7-1.6,1.5c0,1.5,1.9,2.1,3.6,2.1c4.5,0,5.6-3.5,6.3-7.1L76.2,381.5z"/>
<path class="st0" d="M122.1,455.7c0.4,0.2,0.8,0.5,1,0.9h0.2c0.1-0.1,0.1-0.3,0.2-0.4s0.1-0.2,0.1-0.4c0-0.1,0-0.2-0.1-0.3
	c-0.1-0.1-0.2-0.2-0.3-0.3c-0.2-0.2-0.6-0.4-1-0.6c-0.4-0.2-1-0.3-1.7-0.3c-0.4,0-0.8,0.1-1.2,0.2c-0.4,0.1-0.7,0.3-1,0.5
	c-0.3,0.2-0.5,0.5-0.7,0.8c-0.2,0.3-0.3,0.7-0.3,1.1c0,0.5,0.1,0.8,0.2,1.2c0.2,0.3,0.4,0.6,0.6,0.7c0.3,0.2,0.6,0.4,0.9,0.5
	c0.3,0.1,0.7,0.2,1,0.3s0.6,0.2,0.9,0.3s0.6,0.2,0.8,0.4c0.2,0.1,0.4,0.3,0.6,0.6c0.1,0.2,0.2,0.5,0.2,0.9c0,0.3-0.1,0.6-0.2,0.8
	s-0.3,0.4-0.5,0.6c-0.2,0.1-0.4,0.3-0.7,0.3c-0.3,0.1-0.6,0.1-0.8,0.1c-0.4,0-0.7,0-1-0.1c-0.3-0.1-0.6-0.2-0.8-0.3
	c-0.2-0.1-0.4-0.2-0.6-0.3c-0.2-0.1-0.3-0.2-0.4-0.3c-0.2,0.2-0.3,0.4-0.3,0.5c-0.1,0.1-0.1,0.2-0.1,0.3c0,0.2,0.1,0.3,0.3,0.5
	c0.2,0.1,0.5,0.3,1.1,0.4c0.5,0.2,1.1,0.2,1.9,0.2c0.5,0,0.9-0.1,1.3-0.2c0.4-0.1,0.8-0.3,1.1-0.5c0.3-0.2,0.5-0.5,0.7-0.9
	c0.2-0.4,0.3-0.8,0.3-1.2c0-0.5-0.1-0.9-0.3-1.2c-0.2-0.3-0.4-0.6-0.7-0.8c-0.3-0.2-0.6-0.4-0.9-0.5s-0.7-0.2-1.1-0.4
	c-0.3-0.1-0.6-0.2-0.9-0.3s-0.5-0.2-0.8-0.3c-0.2-0.1-0.4-0.3-0.5-0.5c-0.1-0.2-0.2-0.4-0.2-0.7s0.1-0.6,0.2-0.8
	c0.1-0.2,0.3-0.4,0.5-0.5c0.2-0.1,0.4-0.2,0.7-0.3c0.2-0.1,0.5-0.1,0.7-0.1C121.2,455.4,121.7,455.5,122.1,455.7 M113.5,462.2
	c0,0.3,0,0.5,0,0.8c0,0.2,0.1,0.5,0.2,0.7c0.1,0.2,0.2,0.3,0.4,0.5c0.2,0.1,0.5,0.2,0.8,0.2c0.1,0,0.3,0,0.4,0s0.3,0,0.4-0.1v-0.4
	c-0.2,0-0.4,0-0.5-0.1c-0.1,0-0.2-0.1-0.3-0.2c-0.1-0.1-0.1-0.2-0.2-0.4c0-0.2-0.1-0.4-0.1-0.7v-11.9c0-0.2,0-0.4-0.1-0.6
	c-0.1-0.1-0.2-0.2-0.3-0.3c-0.1-0.1-0.2-0.1-0.3-0.1c-0.1,0-0.2,0-0.3,0h-0.1c0,0,0,0-0.1,0h-0.1v12.6H113.5z M109.5,461.8
	c0,0.1-0.1,0.3-0.2,0.5c-0.2,0.2-0.4,0.4-0.7,0.5c-0.3,0.2-0.6,0.3-1,0.5c-0.4,0.1-0.8,0.2-1.2,0.2c-0.4,0-0.7-0.1-1-0.2
	s-0.5-0.3-0.6-0.4c-0.2-0.2-0.3-0.4-0.3-0.6c-0.1-0.2-0.1-0.5-0.1-0.7c0-0.5,0.1-0.9,0.4-1.3c0.3-0.3,0.6-0.6,1.1-0.8
	c0.4-0.2,0.9-0.3,1.5-0.4c0.5-0.1,1.1-0.1,1.6-0.1h0.3c0.1,0,0.2,0,0.3,0L109.5,461.8L109.5,461.8z M111.8,463.7
	c-0.2,0-0.3,0-0.5-0.1c-0.1,0-0.3-0.1-0.3-0.2c-0.1-0.1-0.2-0.3-0.2-0.5c-0.1-0.2-0.1-0.5-0.1-0.9v-4.1c0-0.6-0.1-1.1-0.2-1.5
	s-0.3-0.8-0.6-1.1c-0.3-0.3-0.6-0.5-1.1-0.7c-0.4-0.2-1-0.2-1.7-0.2c-0.5,0-1,0.1-1.5,0.2c-0.5,0.1-1,0.3-1.3,0.5
	c-0.2,0.1-0.3,0.2-0.4,0.3s-0.2,0.2-0.2,0.3c0,0.2,0.1,0.4,0.3,0.7h0.2c0.3-0.2,0.7-0.4,1.1-0.6c0.5-0.2,1.1-0.3,1.7-0.3
	c0.5,0,0.9,0.1,1.2,0.2c0.3,0.1,0.6,0.3,0.7,0.5c0.2,0.2,0.3,0.5,0.4,0.7c0.1,0.3,0.1,0.6,0.1,0.9v0.5c-0.2,0-0.3,0-0.5,0
	s-0.3,0-0.5,0c-0.5,0-1.1,0-1.7,0.1s-1.2,0.3-1.8,0.5c-0.5,0.2-1,0.6-1.4,1s-0.6,1-0.6,1.7c0,0.6,0.1,1,0.3,1.4
	c0.2,0.4,0.4,0.6,0.8,0.9c0.3,0.2,0.6,0.3,1,0.4s0.7,0.1,1,0.1c0.7,0,1.4-0.1,1.9-0.4c0.5-0.3,1-0.6,1.4-1c0,0.5,0.2,0.8,0.5,1
	c0.3,0.2,0.7,0.3,1.1,0.3c0.2,0,0.5,0,0.7-0.1v-0.5H111.8z M94.1,454.8c-0.2-0.2-0.5-0.2-0.8-0.2h-0.1v9.6h1.2v-7.1
	c0-0.2,0.1-0.4,0.2-0.5c0.1-0.1,0.3-0.3,0.5-0.4c0.2-0.1,0.4-0.3,0.7-0.4c0.2-0.1,0.5-0.2,0.8-0.2c0.3-0.1,0.6-0.1,0.9-0.1
	c1.3,0,2.1,0.4,2.3,1.3c0.1,0.2,0.1,0.4,0.1,0.7s0,0.5,0,0.8v5.8h1.2v-5.8c0-0.3,0-0.6,0-0.9c0-0.3-0.1-0.6-0.1-0.9
	c-0.1-0.3-0.2-0.5-0.3-0.8c-0.1-0.3-0.3-0.5-0.6-0.7c-0.2-0.2-0.5-0.4-0.9-0.5s-0.8-0.2-1.3-0.2c-0.8,0-1.5,0.1-2.1,0.4
	c-0.6,0.3-1,0.6-1.4,0.9C94.4,455.3,94.3,455,94.1,454.8 M90.7,457.6c-0.2-0.6-0.4-1.1-0.7-1.6s-0.8-0.8-1.3-1.1
	c-0.5-0.3-1.2-0.4-2-0.4c-0.7,0-1.4,0.1-1.9,0.4c-0.6,0.3-1,0.6-1.4,1.1s-0.6,1-0.8,1.6c-0.2,0.6-0.3,1.3-0.3,1.9
	c0,0.7,0.1,1.3,0.2,1.9c0.2,0.6,0.4,1.1,0.8,1.6c0.3,0.5,0.8,0.8,1.4,1.1c0.6,0.3,1.2,0.4,2,0.4s1.5-0.1,2-0.4
	c0.6-0.3,1-0.7,1.4-1.1c0.3-0.5,0.6-1,0.8-1.6s0.2-1.2,0.2-1.9C90.9,458.8,90.8,458.2,90.7,457.6 M89.5,460.9
	c-0.1,0.5-0.2,0.9-0.5,1.3c-0.2,0.4-0.6,0.7-1,1c-0.4,0.2-0.9,0.4-1.6,0.4c-0.6,0-1.1-0.1-1.5-0.4c-0.4-0.2-0.7-0.6-1-1
	c-0.2-0.4-0.4-0.8-0.5-1.3s-0.1-1-0.1-1.4c0-0.5,0.1-0.9,0.2-1.4c0.1-0.5,0.3-0.9,0.5-1.3s0.6-0.7,1-0.9c0.4-0.2,0.9-0.4,1.5-0.4
	s1.2,0.1,1.6,0.4c0.4,0.2,0.7,0.6,0.9,0.9c0.2,0.4,0.4,0.8,0.5,1.3s0.1,1,0.1,1.4C89.7,459.9,89.6,460.4,89.5,460.9 M79.8,451.4
	c-0.2-0.2-0.4-0.3-0.6-0.3c-0.2,0-0.5,0.1-0.6,0.3c-0.2,0.2-0.3,0.4-0.3,0.7c0,0.3,0.1,0.5,0.3,0.7c0.2,0.2,0.4,0.3,0.6,0.3
	c0.2,0,0.5-0.1,0.6-0.3c0.2-0.2,0.3-0.4,0.3-0.7C80.1,451.8,80,451.6,79.8,451.4 M80.4,464.3c0.1,0,0.3,0,0.4-0.1v-0.4
	c-0.2,0-0.4,0-0.5-0.1c-0.1,0-0.2-0.1-0.3-0.2s-0.1-0.3-0.2-0.5c0-0.2-0.1-0.4-0.1-0.7v-6.6c0-0.4-0.1-0.7-0.3-0.8s-0.5-0.2-0.8-0.2
	h-0.1v7.6c0,0.3,0,0.5,0,0.8c0,0.3,0.1,0.5,0.2,0.7c0.1,0.2,0.2,0.3,0.4,0.5c0.2,0.1,0.4,0.2,0.8,0.2
	C80.2,464.3,80.3,464.3,80.4,464.3 M74.8,455.7c0.4,0.2,0.8,0.5,1,0.9H76c0.1-0.1,0.1-0.3,0.2-0.4c0.1-0.1,0.1-0.2,0.1-0.4
	c0-0.1,0-0.2-0.1-0.3c-0.1-0.1-0.2-0.2-0.3-0.3c-0.2-0.2-0.6-0.4-1-0.6c-0.4-0.2-1-0.3-1.7-0.3c-0.4,0-0.8,0.1-1.2,0.2
	s-0.7,0.3-1,0.5c-0.3,0.2-0.5,0.5-0.7,0.8c-0.2,0.3-0.3,0.7-0.3,1.1c0,0.5,0.1,0.8,0.2,1.2c0.2,0.3,0.4,0.6,0.6,0.7
	c0.3,0.2,0.6,0.4,0.9,0.5c0.3,0.1,0.7,0.2,1,0.3s0.6,0.2,0.9,0.3c0.3,0.1,0.6,0.2,0.8,0.4c0.2,0.1,0.4,0.3,0.6,0.6
	c0.1,0.2,0.2,0.5,0.2,0.9c0,0.3-0.1,0.6-0.2,0.8c-0.1,0.2-0.3,0.4-0.5,0.6c-0.2,0.1-0.4,0.3-0.7,0.3c-0.3,0.1-0.6,0.1-0.8,0.1
	c-0.4,0-0.7,0-1-0.1c-0.3-0.1-0.6-0.2-0.8-0.3s-0.4-0.2-0.6-0.3c-0.2-0.1-0.3-0.2-0.4-0.3c-0.2,0.2-0.3,0.4-0.3,0.5
	c-0.1,0.1-0.1,0.2-0.1,0.3c0,0.2,0.1,0.3,0.3,0.5c0.2,0.1,0.5,0.3,1.1,0.4c0.5,0.2,1.1,0.2,1.9,0.2c0.5,0,0.9-0.1,1.3-0.2
	c0.4-0.1,0.8-0.3,1.1-0.5c0.3-0.2,0.5-0.5,0.7-0.9c0.2-0.4,0.3-0.8,0.3-1.2c0-0.5-0.1-0.9-0.3-1.2c-0.2-0.3-0.4-0.6-0.7-0.8
	s-0.6-0.4-0.9-0.5c-0.3-0.1-0.7-0.2-1.1-0.4c-0.3-0.1-0.6-0.2-0.9-0.3c-0.3-0.1-0.5-0.2-0.8-0.3c-0.2-0.1-0.4-0.3-0.5-0.5
	c-0.1-0.2-0.2-0.4-0.2-0.7s0.1-0.6,0.2-0.8c0.1-0.2,0.3-0.4,0.5-0.5c0.2-0.1,0.4-0.2,0.7-0.3c0.2-0.1,0.5-0.1,0.7-0.1
	C73.9,455.4,74.4,455.5,74.8,455.7 M66.8,455.7c0.4,0.2,0.8,0.5,1,0.9H68c0.1-0.1,0.1-0.3,0.2-0.4c0.1-0.1,0.1-0.2,0.1-0.4
	c0-0.1,0-0.2-0.1-0.3c-0.1-0.1-0.2-0.2-0.3-0.3c-0.2-0.2-0.6-0.4-1-0.6c-0.4-0.2-1-0.3-1.7-0.3c-0.4,0-0.8,0.1-1.2,0.2
	s-0.7,0.3-1,0.5c-0.3,0.2-0.5,0.5-0.7,0.8c-0.2,0.3-0.3,0.7-0.3,1.1c0,0.5,0.1,0.8,0.2,1.2c0.2,0.3,0.4,0.6,0.7,0.7
	c0.3,0.2,0.6,0.4,0.9,0.5c0.3,0.1,0.7,0.2,1,0.3s0.6,0.2,0.9,0.3c0.3,0.1,0.6,0.2,0.8,0.4c0.2,0.1,0.4,0.3,0.6,0.6
	c0.1,0.2,0.2,0.5,0.2,0.9c0,0.3-0.1,0.6-0.2,0.8c-0.1,0.2-0.3,0.4-0.5,0.6c-0.2,0.1-0.4,0.3-0.7,0.3c-0.3,0.1-0.6,0.1-0.8,0.1
	c-0.4,0-0.7,0-1-0.1c-0.3-0.1-0.6-0.2-0.8-0.3s-0.4-0.2-0.6-0.3c-0.2-0.1-0.3-0.2-0.4-0.3c-0.2,0.2-0.3,0.4-0.3,0.5
	c-0.1,0.1-0.1,0.2-0.1,0.3c0,0.2,0.1,0.3,0.3,0.5c0.2,0.1,0.5,0.3,1.1,0.4c0.5,0.2,1.1,0.2,1.9,0.2c0.5,0,0.9-0.1,1.3-0.2
	c0.4-0.1,0.8-0.3,1.1-0.5c0.3-0.2,0.5-0.5,0.7-0.9c0.2-0.4,0.3-0.8,0.3-1.2c0-0.5-0.1-0.9-0.3-1.2c-0.2-0.3-0.4-0.6-0.7-0.8
	s-0.6-0.4-0.9-0.5c-0.3-0.1-0.7-0.2-1.1-0.4c-0.3-0.1-0.6-0.2-0.9-0.3c-0.3-0.1-0.5-0.2-0.8-0.3c-0.2-0.1-0.4-0.3-0.5-0.5
	c-0.1-0.2-0.2-0.4-0.2-0.7s0.1-0.6,0.2-0.8c0.1-0.2,0.3-0.4,0.5-0.5c0.2-0.1,0.4-0.2,0.7-0.3c0.2-0.1,0.5-0.1,0.7-0.1
	C65.9,455.4,66.4,455.5,66.8,455.7 M53.6,458.7c0-1.1,0.3-1.9,0.8-2.5s1.2-0.9,2.1-0.9c0.5,0,1,0.1,1.3,0.3c0.4,0.2,0.6,0.4,0.8,0.7
	s0.4,0.7,0.4,1.1c0.1,0.4,0.1,0.8,0.1,1.3H53.6z M60.1,462.7c-0.1-0.1-0.2-0.3-0.3-0.4c-0.1,0.1-0.2,0.2-0.3,0.3s-0.3,0.3-0.6,0.4
	c-0.2,0.1-0.5,0.2-0.8,0.3s-0.7,0.1-1.1,0.1c-0.6,0-1-0.1-1.5-0.3c-0.4-0.2-0.8-0.4-1-0.8c-0.3-0.3-0.5-0.8-0.6-1.2
	c-0.1-0.5-0.2-1-0.2-1.6h6.8c0-0.4,0.1-0.7,0.1-1c0-0.5-0.1-1.1-0.2-1.6c-0.1-0.5-0.4-0.9-0.7-1.3c-0.3-0.4-0.7-0.7-1.2-0.9
	c-0.5-0.2-1.1-0.3-1.7-0.3c-0.5,0-1.1,0.1-1.6,0.3s-1,0.5-1.4,0.9c-0.4,0.4-0.7,0.9-1,1.5c-0.2,0.6-0.4,1.4-0.4,2.2
	c0,0.9,0.1,1.7,0.3,2.3c0.2,0.7,0.5,1.2,0.9,1.6s0.9,0.7,1.4,0.9c0.6,0.2,1.2,0.3,1.8,0.3c0.5,0,0.9-0.1,1.3-0.2
	c0.4-0.1,0.8-0.2,1-0.4c0.3-0.2,0.5-0.3,0.7-0.5c0.2-0.2,0.2-0.3,0.2-0.4C60.2,463,60.2,462.9,60.1,462.7 M52.5,451.5
	c0.1-0.1,0.2-0.3,0.2-0.4c0.1-0.1,0.1-0.2,0.1-0.3s0-0.2-0.1-0.3c0-0.1-0.1-0.2-0.3-0.3c-0.2-0.2-0.6-0.4-0.9-0.5
	c-0.4-0.1-0.8-0.2-1.4-0.2c-0.9,0-1.7,0.2-2.2,0.7c-0.6,0.5-0.9,1.2-1.1,2.1c0,0.3-0.1,0.7-0.1,1.1v10.8h1.2v-8.6h3.6v-1h-3.6V453
	c0-0.3,0-0.6,0.1-0.9c0.1-0.6,0.4-1.1,0.7-1.4c0.4-0.3,0.9-0.4,1.4-0.4s0.9,0.1,1.2,0.3c0.3,0.2,0.6,0.4,0.9,0.8h0.3V451.5z
	 M44.2,457.6c-0.2-0.6-0.4-1.1-0.7-1.6s-0.8-0.8-1.3-1.1c-0.5-0.3-1.2-0.4-2-0.4c-0.7,0-1.4,0.1-1.9,0.4c-0.6,0.3-1,0.6-1.4,1.1
	s-0.7,1-0.8,1.6c-0.2,0.6-0.3,1.3-0.3,1.9c0,0.7,0.1,1.3,0.2,1.9c0.2,0.6,0.4,1.1,0.8,1.6c0.4,0.5,0.8,0.8,1.4,1.1
	c0.6,0.3,1.2,0.4,2,0.4s1.5-0.1,2-0.4c0.6-0.3,1-0.7,1.4-1.1c0.3-0.5,0.6-1,0.8-1.6s0.2-1.2,0.2-1.9
	C44.4,458.8,44.3,458.2,44.2,457.6 M43,460.9c-0.1,0.5-0.2,0.9-0.5,1.3c-0.2,0.4-0.6,0.7-1,1c-0.4,0.2-0.9,0.4-1.6,0.4
	c-0.6,0-1.1-0.1-1.5-0.4c-0.4-0.2-0.7-0.6-1-1c-0.2-0.4-0.4-0.8-0.5-1.3s-0.1-1-0.1-1.4c0-0.5,0.1-0.9,0.2-1.4
	c0.1-0.5,0.3-0.9,0.5-1.3s0.6-0.7,1-0.9c0.4-0.2,0.9-0.4,1.5-0.4s1.2,0.1,1.6,0.4c0.4,0.2,0.7,0.6,0.9,0.9c0.2,0.4,0.4,0.8,0.5,1.3
	s0.1,1,0.1,1.4C43.1,459.9,43.1,460.4,43,460.9 M30.8,454.8c-0.2-0.2-0.5-0.2-0.8-0.2h-0.1v9.6h1.2v-7.1c0-0.2,0.1-0.4,0.2-0.6
	c0.1-0.2,0.3-0.4,0.4-0.5c0.2-0.2,0.4-0.3,0.6-0.4c0.2-0.1,0.5-0.1,0.7-0.1c0.3,0,0.6,0,0.8,0.1c0.2,0.1,0.4,0.2,0.5,0.4
	c0.1-0.1,0.2-0.2,0.3-0.4c0.1-0.2,0.1-0.3,0.1-0.5c0-0.2,0-0.3-0.1-0.4c-0.1-0.1-0.2-0.2-0.4-0.2c-0.1,0-0.3-0.1-0.5-0.1
	s-0.3,0-0.4,0c-0.3,0-0.6,0-0.8,0.1s-0.5,0.2-0.6,0.3c-0.2,0.1-0.4,0.3-0.5,0.4c-0.1,0.2-0.2,0.3-0.3,0.4
	C31.1,455.3,31,455,30.8,454.8 M25.5,462.5c-0.5,0.7-1.3,1-2.3,1c-0.3,0-0.7,0-0.9-0.1c-0.3-0.1-0.5-0.2-0.8-0.3
	c-0.2-0.1-0.4-0.3-0.6-0.4c-0.2-0.1-0.3-0.2-0.3-0.3V457c0-0.2,0.1-0.3,0.2-0.5c0.2-0.3,0.5-0.5,1-0.7c0.4-0.2,1-0.3,1.6-0.3
	s1,0.1,1.4,0.3s0.7,0.5,0.9,0.9c0.2,0.4,0.4,0.8,0.5,1.3s0.1,1,0.1,1.6C26.4,460.8,26.1,461.9,25.5,462.5 M20.6,468.7v-5.3
	c0,0,0.1,0.1,0.3,0.2c0.1,0.1,0.3,0.2,0.5,0.4c0.2,0.1,0.5,0.2,0.8,0.3s0.7,0.1,1.2,0.1s1-0.1,1.5-0.2c0.5-0.2,0.9-0.4,1.3-0.8
	c0.4-0.4,0.7-0.9,1-1.6c0.3-0.7,0.4-1.5,0.4-2.5c0-0.9-0.1-1.6-0.3-2.3c-0.2-0.6-0.5-1.1-0.9-1.5c-0.4-0.4-0.8-0.7-1.3-0.9
	c-0.5-0.2-1-0.3-1.6-0.3c-0.4,0-0.7,0-1,0.1c-0.3,0.1-0.6,0.2-0.8,0.3s-0.5,0.3-0.6,0.4c-0.2,0.1-0.3,0.3-0.4,0.4
	c0-0.4-0.1-0.7-0.3-0.8s-0.5-0.2-0.7-0.2h-0.1v14.1h1V468.7z M11.8,455.7c0.4,0.2,0.8,0.5,1,0.9H13c0.1-0.1,0.1-0.3,0.2-0.4
	c0.1-0.1,0.1-0.2,0.1-0.4c0-0.1,0-0.2-0.1-0.3c-0.1-0.1-0.2-0.2-0.3-0.3c-0.2-0.2-0.6-0.4-1-0.6c-0.4-0.2-1-0.3-1.7-0.3
	c-0.4,0-0.8,0.1-1.2,0.2s-0.7,0.3-1,0.5c-0.3,0.2-0.5,0.5-0.7,0.8c-0.2,0.3-0.3,0.7-0.3,1.1c0,0.5,0.1,0.8,0.2,1.2
	c0.2,0.3,0.4,0.6,0.7,0.7c0.3,0.2,0.6,0.4,0.9,0.5c0.3,0.1,0.7,0.2,1,0.3s0.6,0.2,0.9,0.3c0.3,0.1,0.6,0.2,0.8,0.4
	c0.2,0.1,0.4,0.3,0.6,0.6c0.1,0.2,0.2,0.5,0.2,0.9c0,0.3-0.1,0.6-0.2,0.8c-0.1,0.2-0.3,0.4-0.5,0.6c-0.2,0.1-0.4,0.3-0.7,0.3
	c-0.3,0.1-0.6,0.1-0.8,0.1c-0.4,0-0.7,0-1-0.1c-0.3-0.1-0.6-0.2-0.8-0.3s-0.4-0.2-0.6-0.3c-0.2-0.1-0.3-0.2-0.4-0.3
	C7.1,462.8,7,463,7,463.1c-0.1,0.1-0.1,0.2-0.1,0.3c0,0.2,0.1,0.3,0.3,0.5c0.2,0.1,0.5,0.3,1.1,0.4c0.5,0.2,1.1,0.2,1.9,0.2
	c0.5,0,0.9-0.1,1.3-0.2c0.4-0.1,0.8-0.3,1.1-0.5c0.3-0.2,0.5-0.5,0.7-0.9c0.2-0.4,0.3-0.8,0.3-1.2c0-0.5-0.1-0.9-0.3-1.2
	c-0.2-0.3-0.4-0.6-0.7-0.8s-0.6-0.4-0.9-0.5c-0.4-0.1-0.7-0.2-1.1-0.4c-0.3-0.1-0.6-0.2-0.9-0.3c-0.3-0.1-0.5-0.2-0.8-0.3
	c-0.2-0.1-0.4-0.3-0.5-0.5c-0.1-0.2-0.2-0.4-0.2-0.7s0.1-0.6,0.2-0.8c0.1-0.2,0.3-0.4,0.5-0.5c0.2-0.1,0.4-0.2,0.7-0.3
	c0.2-0.1,0.5-0.1,0.7-0.1C10.8,455.4,11.3,455.5,11.8,455.7 M6.1,450.3c-0.2-0.2-0.4-0.3-0.7-0.3s-0.5,0.1-0.7,0.3s-0.3,0.4-0.3,0.7
	c0,0.3,0.1,0.5,0.2,0.6c0.2,0.2,0.3,0.3,0.5,0.4c-0.1,0.4-0.2,0.7-0.5,0.9c-0.2,0.2-0.5,0.4-0.7,0.5c0.1,0.3,0.3,0.5,0.6,0.5
	c0.2,0,0.3,0,0.5-0.1s0.3-0.2,0.5-0.4s0.4-0.6,0.6-0.9c0.2-0.4,0.3-0.8,0.3-1.2C6.3,450.8,6.2,450.5,6.1,450.3 M2.8,454.7
	c-0.1,0-0.1,0-0.2-0.1c-0.1,0-0.2,0-0.3,0c-0.3,0-0.5,0.1-0.6,0.3c-0.2,0.2-0.3,0.5-0.4,0.8l-2.3,7.4l-2.8-7.4
	c-0.1-0.3-0.2-0.6-0.4-0.8s-0.4-0.3-0.7-0.3c-0.2,0-0.3,0-0.5,0.1l1.1,2.8l-2.3,5.7l-2.4-7.4c-0.1-0.3-0.2-0.6-0.4-0.8
	c-0.2-0.2-0.4-0.3-0.7-0.3c-0.1,0-0.2,0-0.3,0s-0.2,0-0.3,0.1l3.3,9.6h1.2l2.3-5.5l2.1,5.5h1.3L2.8,454.7z M-12,457.6
	c-0.2-0.6-0.4-1.1-0.7-1.6s-0.8-0.8-1.3-1.1c-0.6-0.3-1.2-0.4-2-0.4c-0.7,0-1.4,0.1-1.9,0.4c-0.6,0.3-1,0.6-1.4,1.1s-0.7,1-0.8,1.6
	c-0.2,0.6-0.3,1.3-0.3,1.9c0,0.7,0.1,1.3,0.2,1.9c0.2,0.6,0.4,1.1,0.8,1.6c0.3,0.5,0.8,0.8,1.4,1.1c0.6,0.3,1.2,0.4,2,0.4
	s1.5-0.1,2-0.4c0.6-0.3,1-0.7,1.4-1.1c0.4-0.5,0.6-1,0.8-1.6s0.2-1.2,0.2-1.9C-11.7,458.8-11.8,458.2-12,457.6 M-13.1,460.9
	c-0.1,0.5-0.2,0.9-0.5,1.3c-0.2,0.4-0.5,0.7-1,1c-0.4,0.2-0.9,0.4-1.6,0.4c-0.6,0-1.1-0.1-1.5-0.4c-0.4-0.2-0.7-0.6-1-1
	c-0.2-0.4-0.4-0.8-0.5-1.3s-0.1-1-0.1-1.4c0-0.5,0.1-0.9,0.2-1.4c0.1-0.5,0.3-0.9,0.5-1.3s0.6-0.7,1-0.9c0.4-0.2,0.9-0.4,1.5-0.4
	s1.1,0.1,1.6,0.4c0.4,0.2,0.7,0.6,0.9,0.9c0.2,0.4,0.4,0.8,0.5,1.3s0.1,1,0.1,1.4C-13,459.9-13,460.4-13.1,460.9 M-25.3,454.8
	c-0.2-0.2-0.5-0.2-0.8-0.2h-0.1v9.6h1.2v-7.1c0-0.2,0.1-0.4,0.2-0.6c0.1-0.2,0.3-0.4,0.4-0.5c0.2-0.2,0.4-0.3,0.6-0.4
	c0.2-0.1,0.5-0.1,0.7-0.1c0.3,0,0.6,0,0.8,0.1c0.2,0.1,0.4,0.2,0.5,0.4c0.1-0.1,0.2-0.2,0.3-0.4c0.1-0.2,0.1-0.3,0.1-0.5
	c0-0.2,0-0.3-0.1-0.4c-0.1-0.1-0.2-0.2-0.4-0.2c-0.1,0-0.3-0.1-0.5-0.1s-0.3,0-0.4,0c-0.3,0-0.6,0-0.8,0.1s-0.5,0.2-0.6,0.3
	c-0.2,0.1-0.4,0.3-0.5,0.4c-0.1,0.2-0.2,0.3-0.3,0.4C-25,455.3-25.1,455-25.3,454.8 M-31.9,454.8c-0.2-0.2-0.5-0.2-0.8-0.2h-0.1v9.6
	h1.2v-7.1c0-0.2,0.1-0.4,0.2-0.6c0.1-0.2,0.3-0.4,0.4-0.5c0.2-0.2,0.4-0.3,0.6-0.4c0.2-0.1,0.5-0.1,0.7-0.1c0.3,0,0.6,0,0.8,0.1
	c0.2,0.1,0.4,0.2,0.5,0.4c0.1-0.1,0.2-0.2,0.3-0.4c0.1-0.2,0.1-0.3,0.1-0.5c0-0.2,0-0.3-0.1-0.4c-0.1-0.1-0.2-0.2-0.3-0.2
	c-0.1,0-0.3-0.1-0.5-0.1s-0.3,0-0.4,0c-0.3,0-0.6,0-0.8,0.1c-0.2,0.1-0.5,0.2-0.6,0.3c-0.2,0.1-0.4,0.3-0.5,0.4
	c-0.1,0.2-0.2,0.3-0.3,0.4C-31.5,455.3-31.6,455-31.9,454.8 M-35.3,457.6c-0.2-0.6-0.4-1.1-0.7-1.6c-0.3-0.5-0.8-0.8-1.3-1.1
	c-0.5-0.3-1.2-0.4-2-0.4c-0.7,0-1.4,0.1-1.9,0.4c-0.6,0.3-1,0.6-1.4,1.1s-0.6,1-0.8,1.6c-0.2,0.6-0.3,1.3-0.3,1.9
	c0,0.7,0.1,1.3,0.2,1.9c0.2,0.6,0.4,1.1,0.8,1.6c0.3,0.5,0.8,0.8,1.4,1.1c0.6,0.3,1.2,0.4,2,0.4s1.5-0.1,2-0.4
	c0.6-0.3,1-0.7,1.4-1.1c0.3-0.5,0.6-1,0.8-1.6c0.2-0.6,0.2-1.2,0.2-1.9C-35,458.8-35.1,458.2-35.3,457.6 M-36.4,460.9
	c-0.1,0.5-0.2,0.9-0.5,1.3c-0.2,0.4-0.6,0.7-1,1c-0.4,0.2-0.9,0.4-1.6,0.4c-0.6,0-1.1-0.1-1.5-0.4c-0.4-0.2-0.7-0.6-1-1
	c-0.2-0.4-0.4-0.8-0.5-1.3s-0.1-1-0.1-1.4c0-0.5,0.1-0.9,0.2-1.4s0.3-0.9,0.5-1.3s0.6-0.7,1-0.9c0.4-0.2,0.9-0.4,1.5-0.4
	s1.2,0.1,1.6,0.4c0.4,0.2,0.7,0.6,0.9,0.9c0.2,0.4,0.4,0.8,0.5,1.3s0.1,1,0.1,1.4C-36.3,459.9-36.3,460.4-36.4,460.9 M-58.8,454.8
	c-0.2-0.2-0.5-0.2-0.8-0.2h-0.1v9.6h1.2v-7.1c0-0.2,0.1-0.4,0.2-0.5c0.2-0.3,0.6-0.5,1-0.8c0.5-0.2,1-0.3,1.5-0.3
	c0.6,0,1.1,0.1,1.5,0.3s0.6,0.5,0.7,1c0.1,0.2,0.1,0.4,0.1,0.7c0,0.3,0,0.5,0,0.8v5.8h1.2v-5.8c0-0.3,0-0.6,0-0.9
	c0-0.3-0.1-0.6-0.1-0.8c0.2-0.2,0.6-0.5,1-0.8c0.5-0.3,1-0.4,1.5-0.4c0.7,0,1.2,0.1,1.5,0.3s0.6,0.5,0.7,1c0.1,0.2,0.1,0.4,0.1,0.7
	c0,0.3,0,0.5,0,0.8v5.8h1.2v-5.8c0-0.3,0-0.6,0-0.9c0-0.3-0.1-0.6-0.1-0.9c-0.1-0.3-0.2-0.5-0.3-0.8c-0.1-0.3-0.3-0.5-0.6-0.7
	c-0.2-0.2-0.5-0.4-0.9-0.5c-0.4-0.1-0.8-0.2-1.3-0.2c-0.8,0-1.5,0.1-2,0.4c-0.5,0.3-1,0.6-1.3,0.9c-0.2-0.4-0.5-0.7-1-1
	c-0.4-0.3-1-0.4-1.8-0.4s-1.5,0.1-2,0.4c-0.5,0.3-0.9,0.6-1.2,0.9C-58.5,455.3-58.6,455-58.8,454.8 M-62.2,457.6
	c-0.2-0.6-0.4-1.1-0.7-1.6c-0.3-0.5-0.8-0.8-1.3-1.1c-0.5-0.3-1.2-0.4-2-0.4c-0.7,0-1.4,0.1-1.9,0.4c-0.6,0.3-1,0.6-1.4,1.1
	s-0.6,1-0.8,1.6c-0.2,0.6-0.3,1.3-0.3,1.9c0,0.7,0.1,1.3,0.2,1.9c0.2,0.6,0.4,1.1,0.8,1.6c0.3,0.5,0.8,0.8,1.4,1.1
	c0.6,0.3,1.2,0.4,2,0.4s1.5-0.1,2-0.4c0.6-0.3,1-0.7,1.4-1.1c0.4-0.5,0.6-1,0.8-1.6c0.2-0.6,0.2-1.2,0.2-1.9
	C-62,458.8-62.1,458.2-62.2,457.6 M-63.4,460.9c-0.1,0.5-0.2,0.9-0.5,1.3c-0.2,0.4-0.6,0.7-1,1c-0.4,0.2-0.9,0.4-1.6,0.4
	c-0.6,0-1.1-0.1-1.5-0.4c-0.4-0.2-0.7-0.6-1-1c-0.2-0.4-0.4-0.8-0.5-1.3s-0.1-1-0.1-1.4c0-0.5,0.1-0.9,0.2-1.4s0.3-0.9,0.5-1.3
	s0.6-0.7,1-0.9c0.4-0.2,0.9-0.4,1.5-0.4s1.1,0.1,1.6,0.4c0.4,0.2,0.7,0.6,0.9,0.9c0.2,0.4,0.4,0.8,0.5,1.3s0.1,1,0.1,1.4
	C-63.3,459.9-63.3,460.4-63.4,460.9 M-75.6,454.6v-1.9c0-0.2,0-0.4-0.1-0.6c-0.1-0.1-0.2-0.2-0.3-0.3c-0.1-0.1-0.2-0.1-0.3-0.1
	c-0.1,0-0.2,0-0.3,0c0,0,0,0-0.1,0c0,0,0,0-0.1,0h-0.1v9.7c0,0.3,0,0.6,0,0.9c0,0.3,0.1,0.6,0.2,0.8c0.2,0.4,0.4,0.8,0.8,1
	c0.4,0.3,0.9,0.4,1.6,0.4c0.4,0,0.7,0,1-0.1s0.5-0.2,0.7-0.3c0.2-0.1,0.4-0.3,0.5-0.4s0.2-0.2,0.2-0.3s0-0.2-0.1-0.3
	s-0.2-0.3-0.4-0.4c-0.1,0.2-0.3,0.3-0.5,0.5c-0.2,0.1-0.3,0.2-0.6,0.3c-0.2,0.1-0.5,0.1-0.8,0.1c-0.5,0-0.9-0.2-1.1-0.5
	c-0.2-0.3-0.4-0.8-0.4-1.5v-6h3.2v-0.9h-3V454.6z M-89.4,456.4c0.5-0.7,1.3-1,2.4-1c0.3,0,0.7,0,0.9,0.1c0.3,0.1,0.5,0.2,0.7,0.3
	s0.4,0.2,0.5,0.4c0.1,0.1,0.3,0.3,0.3,0.3v5.2c0,0.2-0.1,0.3-0.2,0.5c-0.1,0.2-0.3,0.3-0.5,0.5c-0.2,0.2-0.5,0.3-0.8,0.4
	c-0.3,0.1-0.7,0.2-1,0.2c-0.6,0-1-0.1-1.4-0.3c-0.4-0.2-0.7-0.5-1-0.9c-0.2-0.4-0.4-0.8-0.5-1.3s-0.2-1-0.2-1.6
	C-90.3,458-90,457.1-89.4,456.4 M-83.4,454.6L-83.4,454.6c-0.1,0-0.1,0-0.2,0h-0.1c-0.2,0-0.4,0.1-0.6,0.2s-0.3,0.4-0.3,0.7
	c0,0-0.1-0.1-0.2-0.2s-0.3-0.2-0.5-0.4c-0.2-0.1-0.5-0.2-0.8-0.3s-0.7-0.1-1.1-0.1c-0.5,0-1,0.1-1.5,0.2c-0.5,0.2-1,0.4-1.4,0.8
	c-0.4,0.4-0.8,0.9-1,1.6c-0.3,0.6-0.4,1.4-0.4,2.4c0,0.9,0.1,1.6,0.3,2.2c0.2,0.6,0.5,1.1,0.9,1.5c0.4,0.4,0.8,0.7,1.3,0.9
	s1,0.3,1.6,0.3c0.4,0,0.7,0,1.1-0.1c0.3-0.1,0.6-0.2,0.8-0.3c0.2-0.1,0.4-0.2,0.6-0.4c0.2-0.1,0.3-0.3,0.4-0.4v0.4
	c0,0.3,0,0.6,0,0.9c0,0.3,0,0.7-0.1,1c-0.2,1.6-1.3,2.3-3.3,2.3c-0.5,0-0.9-0.1-1.3-0.2c-0.4-0.1-0.7-0.2-0.9-0.4
	c-0.3-0.2-0.5-0.4-0.7-0.6c-0.1,0.1-0.2,0.2-0.3,0.3c-0.1,0.1-0.2,0.3-0.2,0.4s0,0.2,0.1,0.3s0.1,0.2,0.2,0.3
	c0.2,0.2,0.6,0.4,1.2,0.6c0.5,0.2,1.2,0.3,1.9,0.3c1.2,0,2.2-0.2,2.9-0.7c0.7-0.5,1.2-1.2,1.4-2.1c0.1-0.4,0.1-0.7,0.2-1.1
	c0-0.4,0-0.8,0-1.2V454.6z M-100.9,454.8c-0.2-0.2-0.5-0.2-0.8-0.2h-0.1v9.6h1.2v-7.1c0-0.2,0.1-0.4,0.2-0.5
	c0.1-0.1,0.3-0.3,0.5-0.4c0.2-0.1,0.4-0.3,0.7-0.4c0.2-0.1,0.5-0.2,0.8-0.2c0.3-0.1,0.6-0.1,0.9-0.1c1.3,0,2.1,0.4,2.3,1.3
	c0.1,0.2,0.1,0.4,0.1,0.7s0,0.5,0,0.8v5.8h1.2v-5.8c0-0.3,0-0.6,0-0.9c0-0.3-0.1-0.6-0.1-0.9c-0.1-0.3-0.2-0.5-0.3-0.8
	c-0.1-0.3-0.3-0.5-0.6-0.7c-0.2-0.2-0.5-0.4-0.9-0.5s-0.8-0.2-1.3-0.2c-0.8,0-1.5,0.1-2.1,0.4c-0.6,0.3-1,0.6-1.4,0.9
	C-100.5,455.3-100.6,455-100.9,454.8 M-104.7,451.4c-0.2-0.2-0.4-0.3-0.6-0.3s-0.5,0.1-0.6,0.3c-0.2,0.2-0.3,0.4-0.3,0.7
	c0,0.3,0.1,0.5,0.3,0.7c0.2,0.2,0.4,0.3,0.6,0.3c0.2,0,0.5-0.1,0.6-0.3c0.2-0.2,0.3-0.4,0.3-0.7
	C-104.4,451.8-104.5,451.6-104.7,451.4 M-104.1,464.3c0.1,0,0.3,0,0.4-0.1v-0.4c-0.2,0-0.4,0-0.5-0.1c-0.1,0-0.2-0.1-0.3-0.2
	c-0.1-0.1-0.1-0.3-0.2-0.5c0-0.2-0.1-0.4-0.1-0.7v-6.6c0-0.4-0.1-0.7-0.3-0.8c-0.2-0.1-0.5-0.2-0.8-0.2h-0.1v7.6c0,0.3,0,0.5,0,0.8
	c0,0.3,0.1,0.5,0.2,0.7c0.1,0.2,0.2,0.3,0.4,0.5c0.2,0.1,0.4,0.2,0.8,0.2C-104.3,464.3-104.2,464.3-104.1,464.3 M-111.6,454.8
	c-0.2-0.2-0.5-0.2-0.7-0.2h-0.1v9.6h1.2v-7.1c0-0.2,0.1-0.4,0.2-0.6c0.1-0.2,0.3-0.4,0.4-0.5c0.2-0.2,0.4-0.3,0.6-0.4
	c0.2-0.1,0.5-0.1,0.7-0.1c0.3,0,0.6,0,0.8,0.1c0.2,0.1,0.4,0.2,0.5,0.4c0.1-0.1,0.2-0.2,0.3-0.4c0.1-0.2,0.1-0.3,0.1-0.5
	c0-0.2,0-0.3-0.1-0.4c-0.1-0.1-0.2-0.2-0.4-0.2c-0.1,0-0.3-0.1-0.5-0.1s-0.3,0-0.4,0c-0.3,0-0.6,0-0.8,0.1c-0.2,0.1-0.5,0.2-0.7,0.3
	s-0.4,0.3-0.5,0.4c-0.1,0.2-0.2,0.3-0.3,0.4C-111.2,455.3-111.3,455-111.6,454.8 M-115.4,451.4c-0.2-0.2-0.4-0.3-0.6-0.3
	s-0.5,0.1-0.6,0.3c-0.2,0.2-0.3,0.4-0.3,0.7c0,0.3,0.1,0.5,0.3,0.7c0.2,0.2,0.4,0.3,0.6,0.3s0.5-0.1,0.6-0.3
	c0.2-0.2,0.3-0.4,0.3-0.7C-115.1,451.8-115.2,451.6-115.4,451.4 M-114.7,464.3c0.1,0,0.3,0,0.4-0.1v-0.4c-0.2,0-0.4,0-0.5-0.1
	c-0.1,0-0.2-0.1-0.3-0.2s-0.1-0.3-0.2-0.5c0-0.2-0.1-0.4-0.1-0.7v-6.6c0-0.4-0.1-0.7-0.4-0.8c-0.2-0.1-0.5-0.2-0.8-0.2h-0.1v7.6
	c0,0.3,0,0.5,0,0.8c0,0.3,0.1,0.5,0.2,0.7c0.1,0.2,0.2,0.3,0.4,0.5c0.2,0.1,0.4,0.2,0.8,0.2C-115,464.3-114.9,464.3-114.7,464.3
	 M-120.9,462.5c-0.5,0.7-1.3,1-2.3,1c-0.3,0-0.7,0-0.9-0.1c-0.3-0.1-0.5-0.2-0.7-0.3c-0.2-0.1-0.4-0.3-0.6-0.4s-0.3-0.2-0.4-0.3V457
	c0-0.2,0.1-0.3,0.2-0.5c0.2-0.3,0.5-0.5,1-0.7c0.4-0.2,1-0.3,1.6-0.3s1,0.1,1.4,0.3s0.7,0.5,0.9,0.9c0.2,0.4,0.4,0.8,0.5,1.3
	s0.1,1,0.1,1.6C-120.1,460.8-120.4,461.9-120.9,462.5 M-125.8,468.7v-5.3c0,0,0.1,0.1,0.3,0.2c0.1,0.1,0.3,0.2,0.5,0.4
	c0.2,0.1,0.5,0.2,0.8,0.3c0.3,0.1,0.7,0.1,1.2,0.1s1-0.1,1.5-0.2c0.5-0.2,0.9-0.4,1.3-0.8c0.4-0.4,0.7-0.9,1-1.6
	c0.3-0.7,0.4-1.5,0.4-2.5c0-0.9-0.1-1.6-0.3-2.3c-0.2-0.6-0.5-1.1-0.9-1.5c-0.4-0.4-0.8-0.7-1.3-0.9c-0.5-0.2-1-0.3-1.6-0.3
	c-0.4,0-0.7,0-1.1,0.1c-0.3,0.1-0.6,0.2-0.8,0.3c-0.2,0.1-0.5,0.3-0.6,0.4c-0.2,0.1-0.3,0.3-0.4,0.4c0-0.4-0.1-0.7-0.3-0.8
	c-0.2-0.1-0.5-0.2-0.8-0.2h-0.1v14.1h1.2V468.7z M-130.8,455.7c0.4,0.2,0.8,0.5,1,0.9h0.2c0.1-0.1,0.1-0.3,0.2-0.4
	c0.1-0.1,0.1-0.2,0.1-0.4c0-0.1,0-0.2-0.1-0.3c-0.1-0.1-0.2-0.2-0.3-0.3c-0.2-0.2-0.6-0.4-1-0.6c-0.4-0.2-1-0.3-1.7-0.3
	c-0.4,0-0.8,0.1-1.2,0.2c-0.4,0.1-0.7,0.3-1,0.5c-0.3,0.2-0.5,0.5-0.7,0.8c-0.2,0.3-0.3,0.7-0.3,1.1c0,0.5,0.1,0.8,0.2,1.2
	c0.2,0.3,0.4,0.6,0.6,0.7c0.3,0.2,0.6,0.4,0.9,0.5c0.3,0.1,0.7,0.2,1,0.3c0.3,0.1,0.6,0.2,0.9,0.3s0.6,0.2,0.8,0.4
	c0.2,0.1,0.4,0.3,0.6,0.6c0.1,0.2,0.2,0.5,0.2,0.9c0,0.3-0.1,0.6-0.2,0.8c-0.1,0.2-0.3,0.4-0.5,0.6c-0.2,0.1-0.4,0.3-0.7,0.3
	c-0.3,0.1-0.6,0.1-0.8,0.1c-0.4,0-0.7,0-1-0.1c-0.3-0.1-0.6-0.2-0.8-0.3c-0.2-0.1-0.4-0.2-0.6-0.3c-0.2-0.1-0.3-0.2-0.4-0.3
	c-0.2,0.2-0.3,0.4-0.3,0.5c-0.1,0.1-0.1,0.2-0.1,0.3c0,0.2,0.1,0.3,0.3,0.5c0.2,0.1,0.5,0.3,1.1,0.4c0.5,0.2,1.1,0.2,1.9,0.2
	c0.5,0,0.9-0.1,1.3-0.2c0.4-0.1,0.8-0.3,1.1-0.5c0.3-0.2,0.5-0.5,0.7-0.9c0.2-0.4,0.3-0.8,0.3-1.2c0-0.5-0.1-0.9-0.3-1.2
	c-0.2-0.3-0.4-0.6-0.7-0.8c-0.3-0.2-0.6-0.4-0.9-0.5c-0.4-0.1-0.7-0.2-1.1-0.4c-0.3-0.1-0.6-0.2-0.9-0.3s-0.5-0.2-0.8-0.3
	c-0.2-0.1-0.4-0.3-0.5-0.5c-0.1-0.2-0.2-0.4-0.2-0.7s0.1-0.6,0.2-0.8c0.1-0.2,0.3-0.4,0.5-0.5c0.2-0.1,0.4-0.2,0.7-0.3
	c0.2-0.1,0.5-0.1,0.7-0.1C-131.7,455.4-131.2,455.5-130.8,455.7 M-144.6,454.8c-0.2-0.2-0.5-0.2-0.8-0.2h-0.1v9.6h1.2v-7.1
	c0-0.2,0.1-0.4,0.2-0.5c0.1-0.1,0.3-0.3,0.5-0.4c0.2-0.1,0.4-0.3,0.7-0.4c0.2-0.1,0.5-0.2,0.8-0.2c0.3-0.1,0.6-0.1,0.9-0.1
	c1.3,0,2.1,0.4,2.3,1.3c0.1,0.2,0.1,0.4,0.1,0.7s0,0.5,0,0.8v5.8h1.2v-5.8c0-0.3,0-0.6,0-0.9c0-0.3-0.1-0.6-0.1-0.9
	c-0.1-0.3-0.2-0.5-0.3-0.8c-0.1-0.3-0.3-0.5-0.6-0.7c-0.2-0.2-0.5-0.4-0.9-0.5s-0.8-0.2-1.3-0.2c-0.8,0-1.5,0.1-2.1,0.4
	c-0.6,0.3-1,0.6-1.4,0.9C-144.3,455.3-144.4,455-144.6,454.8 M-148.5,451.4c0-0.2,0-0.4-0.1-0.6c-0.1-0.1-0.2-0.2-0.3-0.3
	c-0.1-0.1-0.2-0.1-0.3-0.1c-0.1,0-0.2,0-0.3,0h-0.1h-0.1l0,0v13.8h1.2V451.4z"/>
</svg>
