<svg xmlns="http://www.w3.org/2000/svg" style="max-height: 100%; max-width: 100%" viewBox="0 0 567 144.7"><defs><style>.a{fill:#fff;}</style></defs><title>common-desktop-white</title><path class="a" d="M47.9,2.3h0ZM75.8,118.4C66.3,132.8,47.9,147,47.9,147h0c-0.1,0-18.5-14.2-27.9-28.6C-8,75.9,1.6,5.2,1.6,5.2S19.4,2.3,47.9,2.3,94.2,5.2,94.2,5.2,103.8,75.9,75.8,118.4ZM94.2,45.9A254.3,254.3,0,0,0,93,6.3c-4-.6-20.7-2.7-45.1-2.7S6.7,5.7,2.7,6.3A254.3,254.3,0,0,0,1.5,45.9C2.5,66.7,6.7,96,21,117.7c8.2,12.5,23.4,24.9,26.9,27.7,3.6-2.8,18.6-15.1,26.9-27.7C89.1,96,93.2,66.7,94.2,45.9Zm-71.5,3c0.4-3.4-2.5-6-3.9-7-4.1-2.1-7-7-4.3-12s2.7-6.5,2.3-7.2-3.3-.4-3.3-0.4l-0.8.2V21.3a0.5,0.5,0,0,0-.6-0.3,0.5,0.5,0,0,1,.2.5v1a15.5,15.5,0,0,1-.5,2.3l0.4,0.4a0.9,0.9,0,0,1,.2.8,3.6,3.6,0,0,1-.6,1.1c-0.2.2-.2,0.6-0.3,0.6l-0.3-.6H11.1a1.4,1.4,0,0,1-.6.7,1.2,1.2,0,0,1-.8.1L9.1,28V27.6a1.2,1.2,0,0,1-.2-0.5A2,2,0,0,1,9.2,26a1.2,1.2,0,0,1-.8-0.5c0.8-.3.7-1.3,1.4-1.4l1.4,0.4a9.8,9.8,0,0,0,.5-2.2,1.1,1.1,0,0,1-.6-1s-2.6-.7-3.6.8S5.2,18.2,14.1,19a4.2,4.2,0,0,1,3.5-.9c4.6,1,6.3-.2,6.9-0.9s-2,3.7-3.7,5.1-5.6,7.8-.8,8.4c-1.2-2.3-1.7-4.3,1.3-2.4,0,0,4,2.8,6.2-2.9,0,0-.5-1.1,1.1-1.5s11.6-.2,16.5-3.9a36.5,36.5,0,0,1-2,7.1l-3.4-.5L42.8,28a21,21,0,0,1-2.9,5l-3-1.6,2.4,2.4a12.2,12.2,0,0,1-5.5,3.7l-2.2-4.1,1.1,4.4a10.3,10.3,0,0,1-2.5.1h-1c2.5,2.7,4.6,5.9,4.7,9.1,0,0-1.6-3.8-4.8-4.3l0.7,1.8s-3-1.7-4.8-1.3H24.8c-1.4,3-.4,6.8-0.4,6.8a17.8,17.8,0,0,1,4.4,1.7c-3.9-.4-5.3-0.6-8.1-0.3a8.5,8.5,0,0,0-3.2,1.3C17.4,50,22.7,48.9,22.7,48.9Zm-5.1-29h0.3l-1-.2a3.5,3.5,0,0,0-1.2-.3,12.3,12.3,0,0,0-2.2.9l1.5-.4h0.4c0,0.2.2,0.3,0.5,0.3a0.9,0.9,0,0,0,.6-0.3A2.1,2.1,0,0,0,17.6,19.9Zm5.2,25.2V43.4L21.3,43l0.5,0.4h0.1l0.2,0.3L22.3,44h0.1A2.1,2.1,0,0,1,22.8,45.1ZM73,23.8c1.6-.4,11.6-0.2,16.5-3.9a36.5,36.5,0,0,1-2,7.1l-3.4-.5,3.1,1.4a21,21,0,0,1-2.9,5l-3-1.6,2.4,2.4a12.2,12.2,0,0,1-5.5,3.7L76,33.2l1.1,4.4a10.3,10.3,0,0,1-2.5.1h-1c2.5,2.7,4.6,5.9,4.7,9.1,0,0-1.6-3.8-4.8-4.3l0.7,1.8s-3-1.7-4.8-1.3H69.2c-1.4,3-.4,6.8-0.4,6.8a17.8,17.8,0,0,1,4.4,1.7c-3.9-.4-5.3-0.6-8.1-0.3a8.5,8.5,0,0,0-3.2,1.3C62.1,50,67.4,49,67.4,49c0.4-3.4-2.5-6-3.9-7-4.1-2.1-7-7-4.3-12s2.7-6.5,2.3-7.2-3.3-.4-3.3-0.4l-0.8.2V21.4a0.5,0.5,0,0,0-.6-0.3,0.5,0.5,0,0,1,.2.5v1a15.5,15.5,0,0,1-.5,2.3l0.4,0.4a0.9,0.9,0,0,1,.2.8,3.6,3.6,0,0,1-.6,1.1c-0.2.2-.2,0.6-0.3,0.6l-0.3-.6H55.8a1.4,1.4,0,0,1-.6.7,1.2,1.2,0,0,1-.8.1l-0.6.2V27.7a1.2,1.2,0,0,1-.2-0.5,2,2,0,0,1,.3-1.1,1.2,1.2,0,0,1-.8-0.5c0.8-.3.7-1.3,1.4-1.4l1.4,0.4a9.8,9.8,0,0,0,.5-2.2,1.1,1.1,0,0,1-.6-1s-2.6-.7-3.6.8-2.3-3.9,6.6-3.1a4.2,4.2,0,0,1,3.5-.9c4.6,1,6.3-.2,6.9-0.9s-2,3.7-3.7,5.1-5.6,7.8-.8,8.4c-1.2-2.3-1.7-4.3,1.3-2.4,0,0,3.9,2.8,6.2-2.9C71.9,25.4,71.4,24.2,73,23.8ZM62.3,19.9h0.3l-1-.2a3.5,3.5,0,0,0-1.2-.3,12.3,12.3,0,0,0-2.2.9l1.5-.4h0.4c0,0.2.2,0.3,0.5,0.3a0.9,0.9,0,0,0,.6-0.3A2.1,2.1,0,0,0,62.3,19.9Zm5.2,23.5L66,43l0.5,0.4h0.1l0.2,0.3L67,44h0.1a1.6,1.6,0,0,1,.5,1.1V43.4H67.5ZM52.3,97.1c2-.5,14.6-0.3,20.7-4.9a42.7,42.7,0,0,1-2.5,8.9l-4.3-.7,3.9,1.7a30.9,30.9,0,0,1-3.6,6.3l-3.7-2,3,3a14.3,14.3,0,0,1-6.9,4.6l-2.8-5.2,1.4,5.5a11.3,11.3,0,0,1-3.2.1l-1.3-.2c3.1,3.4,5.7,7.4,5.9,11.4,0,0-2-4.8-6-5.4l0.9,2.3s-3.8-2.1-6-1.7H47.6c-1.8,3.7-.5,8.5-0.5,8.5a21.1,21.1,0,0,1,5.5,2.1c-4.9-.5-6.7-0.7-10.1-0.4a11.7,11.7,0,0,0-4,1.6c0.2-3,6.9-4.3,6.9-4.3,0.5-4.3-3.1-7.5-4.9-8.8-5.2-2.7-8.8-8.8-5.4-15.1s3.4-8.1,2.9-9-4.1-.5-4.1-0.5l-1,.2V93.6s-0.3-.7-0.7-0.3a0.8,0.8,0,0,1,.3.6v1.3a11.5,11.5,0,0,1-.6,2.8l0.5,0.5a1,1,0,0,1,.2,1,6,6,0,0,1-.7,1.4c-0.2.2-.2,0.7-0.3,0.7a2.7,2.7,0,0,0-.4-0.7H31a1.7,1.7,0,0,1-.7.9,2,2,0,0,1-1,.2l-0.7.3v-0.5a3.3,3.3,0,0,1-.3-0.6,2.5,2.5,0,0,1,.4-1.4,1.6,1.6,0,0,1-1-.6c1-.4.9-1.6,1.7-1.8l1.7,0.4a10.2,10.2,0,0,0,.6-2.7,1.5,1.5,0,0,1-.8-1.2s-3.3-.9-4.5,1c0,0-2.9-4.9,8.3-3.9a5.5,5.5,0,0,1,4.4-1.1c5.8,1.2,7.9-.3,8.6-1.1s-2.5,4.7-4.7,6.4-7,9.8-1.1,10.5c-1.5-2.9-2.2-5.4,1.6-3.1,0,0,5,3.6,7.7-3.7C51,99,50.4,97.6,52.3,97.1ZM38.9,92.2c0.3,0,.4-0.1.3-0.2l-1.3-.3a5.7,5.7,0,0,0-1.5-.3,14.2,14.2,0,0,0-2.7,1.2l1.8-.5h0.4c0,0.3.3,0.4,0.7,0.4a0.8,0.8,0,0,0,.7-0.4A4.5,4.5,0,0,0,38.9,92.2Zm6.5,29.4-1.9-.5,0.6,0.6h0.1l0.3,0.3a0.5,0.5,0,0,1,.2.3h0.1a2.5,2.5,0,0,1,.6,1.3v-2.2ZM37.3,65.2h1.3l-0.4-2.1ZM73.9,77.5l-1-.4,0.7,1.6L72,77.9l0.6,1.6-1.1-.7,0.3,0.8-1,.4c-0.4.1-10.8-9.1-22.6,2.3-1.3,1.2-1.4,1.6-3,0-10.5-10.7-22.7-2.1-22.7-2.1l-0.7-.4,0.4-.9-1.1.6,0.8-1.9-1.7.9,0.6-1.4-1,.5,7-17.4c9.6-8.5,20.5-.4,20.5-0.4S59,51.3,67.2,60Zm-42-14h0.4V62a10.2,10.2,0,0,1-2.5.6l-2,.3v0.3c0.7,0,.7.3,0.5,1l-0.9,2.7A1.3,1.3,0,0,1,26.3,68v0.3l1.6-.3,1.7-.3V67.4c-0.8.2-1,.1-0.8-0.5l0.5-1.5h0.3c0.5-.1.6,0.3,0.5,0.8h0.3c0.1-.4.1-0.7,0.2-1.1s0.1-.8.2-1.2H30.5c-0.2.7-.4,1-0.8,1H29.4l0.3-1.2a0.8,0.8,0,0,1,.9-0.8C31.6,62.7,31.9,62.6,31.9,63.5Zm3.9-1.3V61.8l-1.3.2H33.3v0.4c0.7-.1.6,0.2,0.5,0.9L33,65.9c-0.2.8-.3,1.1-1.1,1.2v0.3h2.9V67c-0.7,0-.7-0.2-0.5-1.1L35,63.2C34.9,62.5,35.1,62.3,35.8,62.2Zm4.7,5.7a0.8,0.8,0,0,1-.5-0.5,5.4,5.4,0,0,1-.2-1.1c-0.1-.8-0.8-4.4-0.8-4.4H38.4l-1.8,3.9A1.6,1.6,0,0,1,35.4,67v0.3H37V67.1c-0.3-.1-0.7-0.1-0.5-0.6l0.3-.7V65.5h1.6v1.1c0,0.4-.4.4-0.7,0.4v0.4l1.3,0.2,1.2,0.3V67.9ZM44.6,64a8.9,8.9,0,0,0-1.7-.9,10.3,10.3,0,0,0-2-.6l-0.2,1.7H41c0.2-.7.2-1.3,0.8-1.1s0.4,0.5.3,1.1l-0.3,3c-0.1.8-.1,1-0.8,0.8v0.3l1.3,0.5a3.4,3.4,0,0,1,1.2.6V69.1a1.2,1.2,0,0,1-.6-1.5l0.3-3c0.1-.7.2-0.9,0.6-0.7s0.4,0.9.4,1.7h0.3Zm11.5,4V66.1H55.8A1.9,1.9,0,0,1,54.2,68c-0.8.3-.9-0.2-1-1.2L53,64.5c0-.8-0.1-1.1.6-1.4V62.7l-1.4.4-1.1.5V64c0.7-.3.7,0.1,0.7,0.9l0.2,3c0,0.7.1,1-.6,1.4v0.3l1.3-.6A33.4,33.4,0,0,1,56.1,68Zm4.5-4.5a0.5,0.5,0,0,1,.5-0.4V62.8H59.4v0.3a0.6,0.6,0,0,1,.6.4,3.8,3.8,0,0,1,.3,1l0.2,1.2c0.1,1.1.1,1.7-1,1.7s-1.4-.6-1.6-1.8V64c-0.1-.7-0.1-1.2.6-1.2V62.5H55.6v0.3c0.7,0,.7.4,0.8,1.1l0.2,1.5a2.3,2.3,0,0,0,2.7,2.3c1.9-.1,1.8-0.9,1.6-2.6V64.4A1,1,0,0,1,60.6,63.5ZM67.1,69V68.7a2,2,0,0,1-.9-0.7l-1.7-2.4,0.7-1a0.8,0.8,0,0,1,.8-0.6V63.7H64.3v0.3c0.3,0,.7.2,0.5,0.4l-0.3.4-0.3.5-0.5-.7a1.1,1.1,0,0,1-.2-0.5c0-.3.2-0.2,0.4-0.2V63.4l-1.1-.2-1.1-.3v0.3a0.9,0.9,0,0,1,.5.4l0.4,0.6,1,1.5L62.7,67a0.9,0.9,0,0,1-.8.6v0.3h0.8l1,0.2V67.9c-0.3-.1-0.5-0.1-0.5-0.5a1.9,1.9,0,0,1,.3-0.8l0.4-.6,0.7,1.1a1.6,1.6,0,0,1,.4.7c0,0.1,0,.2-0.1.2H64.5v0.3l1.3,0.2A2.4,2.4,0,0,0,67.1,69Z" transform="translate(-0.1 -2.3)"/><path class="a" d="M163.6,116.4c-1,0-3.7,8.1-22,8.1-6.6,0-6-1.9-6-6.6V79.6c0-6.9,5.8-4.9,5.8-6.7s-0.5-1.1-1.5-1.1-3.1.3-7.6,0.3-6.3-.3-8-0.3-1.6.2-1.6,1,6.6,1,6.6,5.1V118c0,3.7-.2,5.9-2.2,6.9s-3.3,1.1-3.5,2.1,0.5,0.8,1.2.8c3.2,0,6.5-.2,9.6-0.3,6-.2,12,0.3,18,0.3,3.5,0,5.2.2,7.8-2.7s4-4.8,4-7.7C164.2,117.2,164.1,116.4,163.6,116.4Z" transform="translate(-0.1 -2.3)"/><path class="a" d="M179.5,121V78.5c0-5.9,5.7-4.1,5.7-6s-0.2-.8-1.5-0.8-4.9.3-7.4,0.3-5.8-.3-8.7-0.3c-0.6,0-.8.2-0.8,0.9s6.3,0.2,6.4,5.9V119c0,7.8-6.2,5.2-6.2,7.5s0.2,1.2,1.7,1.2,2.8-.3,7.6-0.3,6.8,0.3,8.6.3,1.6-.2,1.6-0.8C186.5,124.6,179.5,126.4,179.5,121Z" transform="translate(-0.1 -2.3)"/><path class="a" d="M242.7,71.7c-1.1,0-2.3.3-6.1,0.3l-5.2-.3c-0.8,0-1.2.2-1.2,1s5.1,0.3,5.1,4c0.3,1.7-.6,4.2-1.1,5.4L220.4,116c-0.4.9-.6,2.2-1.4,2.2s-1.4-1.8-3.2-6L202,79.6a8.9,8.9,0,0,1-.7-3.1c0-2.8,3.3-2.9,3.2-4a1,1,0,0,0-1.1-.8c-1.1,0-4.1.3-6.2,0.3s-4.8-.3-7.3-0.3a1,1,0,0,0-1.1,1.1c0,1.7,4.1.2,6.1,5L214.4,124c0.7,1.7,1.7,5,2.9,5s1.7-2.6,2.6-4.6l19.7-46.6c2.2-5.3,4.4-3.3,4.4-5.1S243.6,71.7,242.7,71.7Z" transform="translate(-0.1 -2.3)"/><path class="a" d="M288.6,116.4c-1,0-3.7,8.1-22,8.1-6.6,0-6-1.9-6-6.6V103.3c0-1.2-.2-2.5,1.4-2.5h11.7c6.6,0,4,7,6.4,7a0.8,0.8,0,0,0,.9-1c0-2.1-.2-4.2-0.2-6.2s0.2-5.2.2-8c0-.6-0.2-1.5-0.9-1.5s0.2,6.3-8,6.3h-8.5c-3.2,0-3,0-3-2.7V80c0-5.3-.2-5,7.4-5,3.2,0,11.4-.5,13.4,2.2s0,5.6,1.9,5.6,1.6-.6,1.6-9.4c0-.9-0.2-1.7-0.8-1.7l-11.3.3c-3.3,0-7.4-.3-22.4-0.3-2.3,0-2.8.3-2.8,0.9s1.7,1.1,2.4,1.3c4.3,0.6,4.3,4.4,4.3,8V118c0,3.7-.2,5.9-2.2,6.9s-3.3,1.1-3.5,2.1,0.5,0.8,1.2.8c3.2,0,6.5-.2,9.6-0.3,6-.2,12,0.3,18,0.3,3.5,0,5.2.2,7.8-2.7s4-4.8,4-7.7C289.3,117.2,289.1,116.4,288.6,116.4Z" transform="translate(-0.1 -2.3)"/><path class="a" d="M420.3,71c-16.2,0-29,11.9-29,28.4s10.5,28.9,27.7,28.9,29.9-11.5,29.9-29.3S436.3,71,420.3,71Zm2,54.9c-15.7,0-25.2-14.2-25.2-28.8,0-12.5,7.6-23.5,20.9-23.5,15.4,0,25.1,14,25.1,28.4S433.8,125.9,422.3,125.9Z" transform="translate(-0.1 -2.3)"/><path class="a" d="M483.8,71c-16.2,0-29,11.9-29,28.4s10.5,28.9,27.7,28.9,29.9-11.5,29.9-29.3S499.8,71,483.8,71Zm2,54.9c-15.7,0-25.2-14.2-25.2-28.8,0-12.5,7.6-23.5,20.9-23.5,15.4,0,25.2,14,25.2,28.4S497.3,125.9,485.8,125.9Z" transform="translate(-0.1 -2.3)"/><path class="a" d="M556,116.4c-1,0-3.7,8.1-22,8.1-6.6,0-6-1.9-6-6.6V79.6c0-6.9,5.8-4.9,5.8-6.7s-0.5-1.1-1.5-1.1-3.1.3-7.6,0.3-6.3-.3-8-0.3-1.6.2-1.6,1,6.6,1,6.6,5.1V118c0,3.7-.2,5.9-2.2,6.9s-3.3,1.1-3.5,2.1,0.5,0.8,1.2.8l9.7-.3c6-.2,12,0.3,18,0.3,3.5,0,5.2.2,7.7-2.7s4-4.8,4-7.7C556.6,117.2,556.6,116.4,556,116.4Z" transform="translate(-0.1 -2.3)"/><rect class="a" x="104.9" y="56.6" width="462.1" height="1.2"/><rect class="a" x="203.7" y="17.5" width="3.4" height="27.7"/><polygon class="a" points="280.6 42.2 265.9 42.2 265.9 32.6 280.3 32.6 280.3 29.5 265.9 29.5 265.9 20.6 280.6 20.6 280.6 17.5 262.5 17.5 262.5 45.2 280.6 45.2 280.6 42.2"/><polygon class="a" points="237 45.2 248.1 17.5 244.2 17.5 234.8 41.5 225.5 17.5 221.5 17.5 232.7 45.2 237 45.2"/><polygon class="a" points="167 23.1 183.1 45.2 186.4 45.2 186.4 17.5 183 17.5 183 39.2 167 17.5 163.5 17.5 163.5 45.2 167 45.2 167 23.1"/><path class="a" d="M134.9,48c7.5,0,11.3-4.4,11.3-11.3V19.8h-3.5V36.7c0,5.1-2.7,8.3-7.9,8.3s-7.8-3.2-7.8-8.3V19.8h-3.5v17C123.6,43.6,127.4,48,134.9,48Z" transform="translate(-0.1 -2.3)"/><polygon class="a" points="528 32.6 542.4 32.6 542.4 29.5 528 29.5 528 20.6 542.7 20.6 542.7 17.5 524.6 17.5 524.6 45.2 528 45.2 528 32.6"/><polygon class="a" points="434.7 45.2 438.1 45.2 438.1 33.5 449 17.5 445 17.5 436.4 30.4 427.8 17.5 423.7 17.5 434.7 33.5 434.7 45.2"/><polygon class="a" points="397.1 45.2 400.6 45.2 400.6 20.6 409.4 20.6 409.4 17.5 388.3 17.5 388.3 20.6 397.1 20.6 397.1 45.2"/><path class="a" d="M301.3,36.5h5.6l7,11H318l-7.5-11.3a7.7,7.7,0,0,0,7.2-8.1c0-5.1-3.7-8.4-8.7-8.4H297.9V47.4h3.4V36.5Zm0-13.6h7.3c3.3,0,5.6,2.1,5.6,5.3s-2.3,5.3-5.6,5.3h-7.3V22.9Z" transform="translate(-0.1 -2.3)"/><path class="a" d="M494.6,48c8.2,0,13.8-6.2,13.8-14.3s-5.6-14.3-13.8-14.3-13.8,6.2-13.8,14.3S486.4,48,494.6,48Zm0-25.6c6.2,0,10.2,4.8,10.2,11.3S500.9,45,494.6,45s-10.2-4.8-10.2-11.3S488.4,22.4,494.6,22.4Z" transform="translate(-0.1 -2.3)"/><rect class="a" x="368.7" y="17.5" width="3.4" height="27.7"/><path class="a" d="M343,45a11.4,11.4,0,0,1-8.7-4l-2.1,2.7a13.8,13.8,0,0,0,10.6,4.4c7.5,0,10.2-4.2,10.2-8.1,0-10.3-16.4-6.8-16.4-13,0-2.6,2.4-4.4,5.7-4.4a10.6,10.6,0,0,1,8,3.3l2.1-2.5a12.8,12.8,0,0,0-9.8-3.9c-5.5,0-9.6,3.2-9.6,7.7,0,9.9,16.4,5.9,16.4,13C349.5,42.3,347.9,45,343,45Z" transform="translate(-0.1 -2.3)"/><path class="a" d="M359.4,76.9c0-2.4,1.7-2.4,4.3-2.4,9.1,0,16.5,5.1,16.5,14.6,0,7.1-4.7,11-12.8,11a36.6,36.6,0,0,1-5.1-.5,0.7,0.7,0,0,0-.8.7c0,1.4,4.6,1.8,5.4,1.8,16.8,0,19.2-12,19.2-15.2,0-11.8-11.1-15.3-21.2-15.3-3.8,0-5.1.3-9,.3s-7.4-.3-8.1-0.3a1.1,1.1,0,0,0-1,1.2c0,2.8,6.5-2,6.5,7.5v37.9c0,8.8-6.2,6.3-6.2,8.5a1.1,1.1,0,0,0,1.3.9c2.3,0,4.9-.3,8.6-0.3s5.9,0.3,8.5.3,2.3-.4,2.3-0.9c0-2.7-8.3,1.4-8.3-10V76.9h-0.1Z" transform="translate(-0.1 -2.3)"/><path class="a" d="M321.4,99.1c5.5-2.2,10-7.5,10-13.7,0-15.3-17.5-13.7-18.7-13.7-4.1,0-8.6.3-13.2,0.3s-3.6-.3-5.1-0.3a1.5,1.5,0,0,0-1.6.9c0,2.7,6.8-.6,6.8,7V120c0,6-5.8,4.9-5.8,6.9a0.8,0.8,0,0,0,.8.9c3,0,6-.3,9-0.3,6.6,0,8.4.3,9.1,0.3s1.3,0.2,1.3-.6c0-2.7-8.2-.2-8.2-7V103.5c0-.8-0.5-2.2,2.1-2.2,8.9,0,7.7-.2,10.5,4.2l8.8,13.8c3,4.5,6.1,8.5,11.9,8.5,0.7,0,5.1,0,5.1-.9s-3.9,1-9.6-7.7ZM305.8,77.3c0-3.1,1.7-2.9,4.5-2.9,7.7,0,15.1,3.2,15.1,12.9s-7.6,11.2-11,11.2-8.6.4-8.6-1.1V77.3Z" transform="translate(-0.1 -2.3)"/></svg>