<svg id="Layer_1" data-name="Layer 1" xmlns="http://www.w3.org/2000/svg" viewBox="0 0 482.68 252.63"><defs><style>.cls-1{fill:#fff;}</style></defs><title>uon-white</title><path class="cls-1" d="M132.5,80.19A40.1,40.1,0,1,0,92.4,40.1,40.1,40.1,0,0,0,132.5,80.19Zm0-51.68A11.58,11.58,0,1,1,120.92,40.1,11.58,11.58,0,0,1,132.5,28.52Z"/><polygon class="cls-1" points="109.43 172.47 55.48 92.32 0 92.32 0 252.63 55.48 252.63 55.48 172.47 109.43 252.63 166.44 252.63 166.44 92.32 109.43 92.32 109.43 172.47"/><path class="cls-1" d="M40.1,80.19c22.14,0,40.1-12.62,40.1-40.1V3H50V42h0c0,6.44-4.42,9.88-9.88,9.88S30.22,48.4,30.22,42V3H0V40.1C0,67.57,18,80.19,40.1,80.19Z"/><path class="cls-1" d="M184.56,92.29h10.08v19.85c0,1.35,0,2.75,1.17,3.83a4.34,4.34,0,0,0,3.2,1.17,4.6,4.6,0,0,0,3.2-1.13,4.85,4.85,0,0,0,1.22-3.87V92.29h10.13v16.93c0,3.65,0,8.37-3.74,11.93-2.3,2.16-6,3.78-10.89,3.78-4.68,0-8.73-1.53-11.07-3.78-3.15-3.06-3.2-6.62-3.29-9.95V92.29Z"/><path class="cls-1" d="M225.2,103.86c0.77-1.08,2.52-3.69,7.65-3.69a8.69,8.69,0,0,1,6.3,2.16c2.21,2.16,2.34,5.27,2.34,7v14.72h-9.27V111.33c0-1.17,0-3.51-3.15-3.51-3.29,0-3.38,2.57-3.38,3.83v12.42h-9.27V100.75h8.78v3.11Z"/><path class="cls-1" d="M244.48,92.29h9.27v6.17h-9.27V92.29Zm0,8.46h9.27v23.32h-9.27V100.75Z"/><path class="cls-1" d="M255.59,100.75h9.81l1.85,8.64c0.5,2.75.59,3.47,1,7,0.36-3.15.5-4,1.13-7.38l1.89-8.24H281l-7.79,23.32h-9.81Z"/><path class="cls-1" d="M305.74,118.62c-2.75,4.19-6.8,6.39-12.38,6.39-8.64,0-12.87-6.21-12.87-12.69,0-7.61,5.27-12.51,12.83-12.51a13.32,13.32,0,0,1,9.36,3.47c3.42,3.38,3.47,7.25,3.56,10.8H289.94a4.45,4.45,0,0,0,1.13,3.29,3.75,3.75,0,0,0,2.79,1.08c2.12,0,3.29-1.13,4.23-3Zm-9-9.45a8.89,8.89,0,0,0-.14-1.08,3.11,3.11,0,0,0-3.11-2.39c-2.79,0-3.29,2.43-3.51,3.47h6.75Z"/><path class="cls-1" d="M316.76,102.78c2.52-2.25,4.23-2.52,7.79-2.52v7.83c-0.63,0-1.26-.09-1.89-0.09-5.45,0-5.54,3.56-5.58,5.09v11h-9.23V100.62h8.91v2.16Z"/><path class="cls-1" d="M330.12,115.56a9.87,9.87,0,0,0,3.51,2.39,9.59,9.59,0,0,0,3.69.77c1.13,0,2.43-.41,2.43-1.44s-1.4-1.4-2.34-1.53a39.5,39.5,0,0,1-4.86-1.08c-2.16-.63-6.44-1.89-6.44-6.84a7.46,7.46,0,0,1,2.34-5.31c2.75-2.61,6.71-2.7,8.24-2.7a23.38,23.38,0,0,1,5.27.63,13.54,13.54,0,0,1,5.85,2.75l-5,4.55a11.13,11.13,0,0,0-6-2.21c-0.36,0-2,0-2,1.22,0,0.86.63,1,3.74,1.76,4.14,0.94,5.13,1.17,6.26,1.76a6.65,6.65,0,0,1,3.65,6.08c0,4.59-3.83,8.64-11.07,8.64a18.48,18.48,0,0,1-12.47-4.68Z"/><path class="cls-1" d="M350.89,92.29h9.27v6.17h-9.27V92.29Zm0,8.46h9.27v23.32h-9.27V100.75Z"/><path class="cls-1" d="M366.2,94h9.32l-0.09,6.8h4v5h-4.05l-0.09,9.5c0,0.9,0,2.43,2.52,2.43a10.45,10.45,0,0,0,1.67-.18v6.35a44.72,44.72,0,0,1-5.85.49c-1,0-4.28,0-6.12-1.94a6.4,6.4,0,0,1-1.58-4.82l0.13-11.84h-3.2v-5h3.24Z"/><path class="cls-1" d="M380.94,100.75h9.68l2.3,10c0.5,2.75.63,3.38,1.08,6.84a61,61,0,0,1,1.13-7.11l2.34-9.77h9.63l-8.51,24.67a12.51,12.51,0,0,1-2.75,5.09c-2,1.94-3.6,2-6.48,2a33.68,33.68,0,0,1-4.91-.31v-6.62c0.77,0,1.76.14,2.61,0.14,1.26,0,2-.27,2-1.13a15.47,15.47,0,0,0-.72-2.39Z"/><path class="cls-1" d="M442.49,103.14a13.16,13.16,0,0,1,3.65,9.32c0,7.34-5.09,12.51-13.91,12.51-9.41,0-13.28-6.12-13.28-12.38,0-7.65,5.18-12.87,13.77-12.83C437.45,99.81,440.69,101.43,442.49,103.14Zm-14.31,9.18c0,2.25.54,6.17,4.32,6.17,3.24,0,4.28-2.75,4.28-6.26,0-1.4-.09-6.08-4.32-5.94C428.94,106.38,428.17,109.71,428.17,112.32Z"/><path class="cls-1" d="M450.54,99c0.09-1.76.13-3.47,1.71-5,0.72-.77,2.57-2.21,6.89-2.21a22.13,22.13,0,0,1,4.86.59v6.35a4.28,4.28,0,0,0-1.71-.32c-2.52,0-2.48,1.71-2.48,2.93H464v5h-4.19v17.74h-9.27V106.34h-3.47v-5h3.47V99Z"/><path class="cls-1" d="M184.56,135.63h10.67l7.16,12c1.76,3.29,2.25,4.23,3.87,7.79-0.27-3.11-.32-3.78-0.41-7.34V135.63h9.41v31.78h-10.8l-6.44-11a86.2,86.2,0,0,1-4.41-8.37c0.23,2.88.27,3.6,0.32,6.48v12.87h-9.36V135.63Z"/><path class="cls-1" d="M241,146.48a13.16,13.16,0,0,1,3.65,9.32c0,7.34-5.09,12.51-13.91,12.51-9.41,0-13.28-6.12-13.28-12.38,0-7.65,5.18-12.87,13.77-12.83C236,143.15,239.19,144.77,241,146.48Zm-14.31,9.18c0,2.25.54,6.17,4.32,6.17,3.24,0,4.28-2.75,4.28-6.26,0-1.4-.09-6.08-4.32-5.94C227.44,149.72,226.68,153.05,226.68,155.67Z"/><path class="cls-1" d="M255.65,146.12c2.52-2.25,4.23-2.52,7.79-2.52v7.83c-0.63,0-1.26-.09-1.89-0.09-5.45,0-5.54,3.56-5.58,5.09v11h-9.23V144h8.91v2.16Z"/><path class="cls-1" d="M269.08,137.3h9.32L278.31,144h4v5h-4.05l-0.09,9.59c0,0.9,0,2.43,2.52,2.43a10.45,10.45,0,0,0,1.67-.18v6.35a44.72,44.72,0,0,1-5.85.49c-1,0-4.28,0-6.12-1.94a6.4,6.4,0,0,1-1.58-4.82L268.94,149h-3.2v-5H269Z"/><path class="cls-1" d="M285.2,135.59h9.23v10.85c0.86-1,2.66-3.33,7.47-3.33a9.25,9.25,0,0,1,6.48,2.34c1.94,2,2,4.64,2.12,6.71v15.26h-9.23V154.09c0-1-.09-3.33-3.33-3.33-3.42,0-3.47,2.43-3.47,3.51v13.14H285.2V135.59Z"/><path class="cls-1" d="M313.2,151.12c0.36-2,.86-4.46,4.19-6.21a18.91,18.91,0,0,1,8.37-1.58c11.07,0,11.07,5.72,11.07,8.51v12.69a3.81,3.81,0,0,0,.81,2.88H328.5v-1.8a12.14,12.14,0,0,1-7.7,2.34c-5.85,0-8.42-3.56-8.42-7.52a6.83,6.83,0,0,1,2-5c2.12-2.16,4.64-2.52,8.73-3.06a30.25,30.25,0,0,0,5-1c0-1.58-.49-2.66-3.15-2.66-2.12,0-2.7.54-3,2.16Zm12.06,6.35c-0.77.18-1.58,0.36-2.39,0.63-1.8.72-1.89,1.8-1.89,2.07a2,2,0,0,0,2.3,1.8,5,5,0,0,0,4.28-2.66,6.27,6.27,0,0,0,.45-2.75C327.11,156.88,326.21,157.2,325.26,157.47Z"/><path class="cls-1" d="M348.58,147.47c0.72-1.17,2.3-3.92,7.38-3.92a12.12,12.12,0,0,1,3.56.54,6.81,6.81,0,0,1,4.55,3.83c0.68-1.53,2.79-4.37,8.1-4.37a9.23,9.23,0,0,1,6.48,2.34c2.12,2.07,2.16,4.59,2.21,6.8v14.72h-9.27v-12.2c0-1.49,0-4-3.24-4-3.38,0-3.42,2.75-3.42,3.78v12.47h-9.27v-12.6a6.87,6.87,0,0,0-.14-1.35,3,3,0,0,0-3.11-2.3,3.58,3.58,0,0,0-2.52.95,3.5,3.5,0,0,0-.9,2.61v12.69h-9.27V144.14h8.87v3.33Z"/><path class="cls-1" d="M392.65,145.9c0.68-.72,2.21-2.43,6.21-2.43,7.52,0,10.17,6.3,10.17,12.42,0,6.8-3.24,12.11-10.26,12.11-3.78,0-5.27-1.44-6-2.16v10H383.6V144.1h9v1.8Zm1.31,5.27c-1.35,1.26-1.35,3.38-1.35,4.68a9.6,9.6,0,0,0,.4,3.2,3.33,3.33,0,0,0,5.58,1.44c0.81-.86,1.31-2.3,1.31-4.46,0-1.85-.18-5.72-3.47-5.81A3.36,3.36,0,0,0,394,151.16Z"/><path class="cls-1" d="M413.22,137.3h9.32L422.45,144h4v5H422.4l-0.09,9.59c0,0.9,0,2.43,2.52,2.43a10.45,10.45,0,0,0,1.67-.18v6.35a44.72,44.72,0,0,1-5.85.49c-1,0-4.28,0-6.12-1.94A6.4,6.4,0,0,1,413,161L413.09,149h-3.2v-5h3.24Z"/><path class="cls-1" d="M451.86,146.48a13.16,13.16,0,0,1,3.65,9.32c0,7.34-5.09,12.51-13.91,12.51-9.41,0-13.28-6.12-13.28-12.38,0-7.65,5.18-12.87,13.77-12.83C446.82,143.15,450.06,144.77,451.86,146.48Zm-14.31,9.18c0,2.25.54,6.17,4.32,6.17,3.24,0,4.28-2.75,4.28-6.26,0-1.4-.09-6.08-4.32-5.94C438.31,149.72,437.54,153.05,437.54,155.67Z"/><path class="cls-1" d="M466.38,147.2c0.77-1.08,2.52-3.69,7.65-3.69a8.69,8.69,0,0,1,6.3,2.16c2.21,2.16,2.34,5.27,2.34,7v14.72H473.4V154.68c0-1.17,0-3.51-3.15-3.51-3.29,0-3.38,2.57-3.38,3.83v12.42h-9.27V144.1h8.78v3.11Z"/></svg>